/* XPM */
static char *db303a96d19240f4e58ef6c66286c8baYUnnc1YxXKwaxdeX[] = {
/* columns rows colors chars-per-pixel */
"64 64 11 1 ",
"  c None",
". c #171516",
"X c #2C2F38",
"o c #282C3C",
"O c #323232",
"+ c #34374C",
"@ c #595757",
"# c #464762",
"$ c #6D6969",
"% c #807B7A",
"& c #8AC4C3",
/* pixels */
"                                                                ",
"                                                                ",
"                                                                ",
"                                                                ",
"                                                                ",
"                                                                ",
"                                                                ",
"                                                                ",
"                                                                ",
"                                                                ",
"                                                                ",
"                                                                ",
"                                                                ",
"                                                                ",
"                                ..                              ",
"                              ..%%..                            ",
"                         ....O.%%%%.O....                       ",
"                       ..@%%%@%@%%.%@%%%@..                     ",
"                      .%%%$%%@%%.@%%@%%$%%%.                    ",
"                     .%%%%%...O%%%%O...%%%%%.                   ",
"                    .%@O%..++++.%%.++++..%O@%.                  ",
"                    .%%%O++###++..+###+++O%%%.                  ",
"                   .%%%.+#############+##+.%%%.                 ",
"                   .@%%.++############+#++.%%@.                 ",
"                   .%@.#+#####......##+#+++.@$.                 ",
"                   .%%.#+####.%%%%%%.######.$%.                 ",
"                   .%%.#+###.%%%%%%%%.#####.%%.                 ",
"                   .%%.#+##.%@@%%%%@@%.####.%%.                 ",
"                   .%%.#+##.%$$@%%@$$%.####.%%.                 ",
"                  ..$@O####.%OO$$$$OO%.####O@$O                 ",
"                  .$%$.####.%O&#@@#&O%.####.$%.                 ",
"                  .%%$.####.$OO@$$OOO$.####.%%.                 ",
"                  .%%%.####.$$%%@@%%$$.####.%%.                 ",
"                  O%%%O#####.@%$%%$%@.#####O%%O                 ",
"                  OO$OO######.%@%%@%.###.##O@@O                 ",
"                   O%$O######.%@%%@%.##.%.#O$%O                 ",
"                   .%%.#######..%%..###.%.#.%%.                 ",
"                   .$%.#########..#####.%.#.%%.                 ",
"                   O@@.################.%.#..@@O                ",
"                   .%$X+################.##O$$$.                ",
"                   .%$.+###########+#######.%%%.                ",
"                   .%$.+###########+#######.%%$.                ",
"                   O@%.+######+#########+##.%%@O                ",
"                   .$@.o+#####+#########+##.@%.                 ",
"                   .%%Oo######++###+####+##O$%.                 ",
"                   O%$.oo+###+++###+####+##.%%O                 ",
"                   .@$......................%@.                 ",
"                   ....                    ....                 ",
"                                                                ",
"                                                                ",
"                                                                ",
"                                                                ",
"                                                                ",
"                                                                ",
"                                                                ",
"                                                                ",
"                                                                ",
"                                                                ",
"                                                                ",
"                                                                ",
"                                                                ",
"                                                                ",
"                                                                ",
"                                                                "
};
