/* XPM */
static char *_f52ba8b33244009b38b0664800b612f[] = {
/* columns rows colors chars-per-pixel */
"64 64 113 2 ",
"   c #2D2A27",
".  c #2E2D2D",
"X  c #3A2624",
"o  c #352926",
"O  c #3B2F26",
"+  c #392728",
"@  c #332D2B",
"#  c #3B2929",
"$  c #2F302A",
"%  c #303026",
"&  c #363D25",
"*  c #32322C",
"=  c #38332E",
"-  c #362E30",
";  c #343331",
":  c #393532",
">  c #3A3934",
",  c #551E1E",
"<  c #5A1D1D",
"1  c #611B1B",
"2  c #452523",
"3  c #4B2322",
"4  c #512B21",
"5  c #5B3B26",
"6  c #4F3538",
"7  c #413D39",
"8  c #4A3F3B",
"9  c #503639",
"0  c #622A27",
"q  c #3A4424",
"w  c #3C442D",
"e  c #3E492B",
"r  c #49671C",
"t  c #47432A",
"y  c #48442A",
"u  c #424D2E",
"i  c #4C4B2C",
"p  c #43502F",
"a  c #45413B",
"s  c #4C423D",
"d  c #4C4B39",
"f  c #514F3F",
"g  c #52503F",
"h  c #614527",
"j  c #614B3F",
"k  c #7C4135",
"l  c #4D632E",
"z  c #4E6631",
"x  c #506533",
"c  c #526934",
"v  c #5D7C37",
"b  c #647C36",
"n  c #544742",
"m  c #554944",
"M  c #525142",
"N  c #575941",
"B  c #5B5A42",
"V  c #745D59",
"C  c #75615B",
"Z  c #97474E",
"A  c #866965",
"S  c #8B6D69",
"D  c #8B756C",
"F  c #8E7B6E",
"G  c #548117",
"H  c #5C8F16",
"J  c #558118",
"K  c #5E9415",
"L  c #61981A",
"P  c #5F8038",
"I  c #66833E",
"U  c #669234",
"Y  c #699237",
"T  c #6B9933",
"R  c #6C963C",
"E  c #6E993D",
"W  c #78963B",
"Q  c #709D3D",
"!  c #76AF36",
"~  c #73A13F",
"^  c #77B037",
"/  c #7CB43D",
"(  c #75A540",
")  c #7DB443",
"_  c #8C8850",
"`  c #81BA44",
"'  c #9D9966",
"]  c #AF926D",
"[  c #A6827D",
"{  c #A3867F",
"}  c #A4877F",
"|  c #A9857F",
" . c #A19772",
".. c #B5AF64",
"X. c #C0BA73",
"o. c #A38780",
"O. c #A98580",
"+. c #AC8781",
"@. c #A78980",
"#. c #A98B82",
"$. c #AE8981",
"%. c #AB8C83",
"&. c #B18A85",
"*. c #B68F89",
"=. c #B88F89",
"-. c #AB9085",
";. c #AD9187",
":. c #BA918A",
">. c #B9998F",
",. c #C79F98",
"<. c #CAA29A",
"1. c #CEA59C",
"2. c #CEA89E",
/* pixels */
"` ` ` ` ` ` ` ` ` ` ` ` ` ` ` ` ` ` / K ! ` / ` ` ` ` ` ` ` ` ` ` ` / K ! ` / ` ` ` ` ` ` ` ` ` ` ` / K ! ` / ` ` ` ` ` ` ` ` ` ",
"` ` ` ` ` ` ` ` ` ` ` ` ` ` ` ` ` ` ` ^ K ! K / ` ` ` ` ` ` ` ` ` ` ` ^ K ! K / ` ` ` ` ` ` ` ` ` ` ` ^ K ! K / ` ` ` ` ` ` ` ` ",
"` ` ` ` ` ` ` ` ` ` ` ` ` ` ` ` ` ` ` / K ! K / ` ` ` ` ` ` ` ` ` ` ` / K ! K / ` ` ` ` ` ` ` ` ` ` ` / K ! K / ` ` ` ` ` ` ` ` ",
"` ` ` ` ` ` ` ` ` ` ` ` ` ` ` ` ` ` ` ` / ` / ` ` ` ` ` ` ` ` ` ` ` ` ` / ` / ` ` ` ` ` ` ` ` ` ` ` ` ` / ` / ` ` ` ` ` ` ` ` ` ",
"` ` ` ` ` ` ` ` ` ` ` ` ` ` ` ` ` ` ` ` ` ` ` ` ` ` ` ` ` ` ` ` ` ` ` ` ` ` ` ` ` ` ` ` ` ` ` ` ` ` ` ` ` ` ` ` ` ` ` ` ` ` ` ` ",
"` ` ` ` ` ` ` ` ` ` ` ` ` ` ` ` ` ` ` ` ` ` ` ` ` ` ` ` ` ` ` ` ` ` ` ` ` ` ` ` ` ` ` ` ` ` ` ` ` ` ` ` ` ` ` ` ` ` ` ` ` ` ` ` ",
"` ` ` ` ` ` ` ` ` ` ` ` ` ` ` ` ` ` ` ` ` ` ` ` ` ` ` ` ` ` ` ` ` ` ` ` ` ` ` ` ` ` ` ` ` ` ` ` ` ` ` ` ` ` ` ` ` ` ` ` ` ` ` ` ",
"` ` ` ` ` ` ` ` ` ` ` ` ` ` ` ` ` ` ` ` ` ` ` ` ` ` ` ` ` ` / ` ` ` ` ` ` ` ` ` ` ` ` ` ` ` / ` ` ` ` ` ` ` ` ` ` ` ` ` ` ` / ` ",
"` ` ` ` ` ` ` ` ` ` ` ` ` ` ` ` ` ` ` ` ` ` ` ` ` ` ` / ` ^ L / ` ` ` ` ` ` ` ` ` ` ` / ` ^ L / ` ` ` ` ` ` ` ` ` ` ` / ` ^ L / ",
"` ` ` ` ` ` ` ` ` ` ` ` ` ` ` ` ` ` ` ` ` ` ` ` ` ` / K ! K ! ` ` ` ` ` ` ` ` ` ` ` / K ! K ! ` ` ` ` ` ` ` ` ` ` ` / K ! K ^ ` ",
"` ` ` ` ` ` ` ` ` ` ` ` ` ` ` ` ` ` ` ` ` ` ` ` ` ` / K ! K / ` ` ` ` ` ` ` ` ` ` ` / K ! K / ` ` ` ` ` ` ` ` ` ` ` / K ! K / ` ",
"` ` ` ` ` ` ` ` ` ` ` ` ` ` ` ` ` ` ` ` ` ` ` ` ` ` ` / ` / ` ` ` ` ` ` ` ` ` ` ` ` ` / ` / ` ` ` ` ` ` ` ` ` ` ` ` ` / ` / ` ` ",
"` ` ` ` ` ` ` ` ` ` ` ` ` ` ` ` ` ` ` ` ` ` ` ` ` ` ` ` ` ` ` ` ` ` ` ` ` ` ` ` ` ` ` ` ` ` ` ` ` ` ` ` ` ` ` ` ` ` ` ` ` ` ` ` ",
"` ` ` ` ` ` ` ` ` ` ` ` ` ` ` ` ` ` ` ` ` ` ` ` ` ` ` ` ` ` ` ` ` ` ` ` ` ` ` ` ` ` ` ` ` ` ` ` ` ` ` ` ` ` ` ` ` ` ` ` ` ` ` ` ",
"` ` ` ` ` ` ` ` ` ` ` ` ` ` ` ` ` ` ` ` ` ` ` ` ` ` ` ` ` ` ` ` ` ` ` ` ` ` ` ` ` ` ` ` ` ` ` ` ` ` ` ` ` ` ` ` ` ` ` ` ` ` ` ` ",
"` ` ` ` ` ` ` ` ` ` ` ` ` ` ` ` ` ` ` / ` ` ` ` ` ` ` ` ` ` ` ) Q R R R R Q ) ` ` ` ` ` ` ) Q R R R R Q ) ` ` ` ` ` ` ` ` ` ` ` ",
"` ` ` ` ` ` ` ` ` ` ` ` ` ` ` ` ` ` / L ^ ` / ` ` ` ` ` ` ` ` ~ z e e e e z ~ ` ` ` ` ` ` ~ z e e e e z ~ ` ` ` ` ` ` ` ` ` ` ` ",
"` ` ` ` ` ` ` ` ` ` ` ` ` ` ` ` ` ` ` ! K ! K / ` ` ` ` ` ) ~ I N n m m n N I ~ ) ` ` ) ~ I N m m m m N I ~ ) ` ` ` ` ` ` ` ` ` ",
"` ` ` ` ` ` ` ` ` ` ` ` ` ` ` ` ` ` ` / K ! K / ` ` ` ` ` Q z N D o.O.O.} D N z Q ` ` Q z N F #.| | #.F N z Q ` ` ` ` ` ` ` ` ` ",
"` ` ` ` ` ` ` ` ` ) ~ ~ ) ` ` ` ` ` ` ` / ` / ` ` ` ` ` ` R e n { ,.*.*.<.@.m e R ` ` R e m %.1.*.*.2.-.m e R ` ` ` ` ` ` ` ` ` ",
"` ` ` ` ` ` ` ` ` ~ x x ~ ` ` ` ` ` ` ` ` ` ` ` ` ` ` ` ` R e n [ &.V V :.$.m e E ` ` E e m +.=.V C >.;.m e R ` ` ` ` ` ` ` ` ` ",
"` ` ` ` ` ` ` ) ~ v w w v ~ ) ` ` ` ` ` ` ` ` ` ` ` ` ` ` R e 8 A A 8 8 S D s w v Q Q v w s S S 8 a D D s e R ` ` ` ` ` ` ` ` ` ",
"` ` ` ` ` ` ` ~ c w * * w c ~ ` ` ` ` ` ` ` ` ` ` ` ` ` ` R u = 8 8 ; ; s s : * w u u w * : s a ; ; a s = u R ` ` ` ` ` ` ` ` ` ",
"` ` ` ` ` ` ` R u . . . . u R ` ` ` ` ` ` ` ` ` ` ` ` ` ` E u       . .     . . . . . . . .     . .       u R ` ` ` ` ` ` ` ` ` ",
"` ` ` ` ` ` ` R u . . . . u R ` ` ` ` ` ` ` ` ` ` ` ` / ` U q     . . . . . . . . . . . . . . . . . .     u R ` ` ` ` ` ` ` ` ` ",
"` ` ` ` ` ` ` R u . . . . u R ` ` ` ` ` ` ` ` ` ` ` / H T r w . . . . . . . . . . . . . . . . . . . .     u E ` ` ` ` ` ` ` ` ` ",
"` ` ` ` ` ` ` R u . . . . u R ` ` ` ` ` ` ` ` ` ` ` / J l & * . . . . . . . . . . . . . . . . . . . .     u E ` ` ` ` ` ` ` ` ` ",
"` ` ` ` ` ` ` R u . . . . u R ` ` ` ` ` ` ` ` ` ` ` ` Y u . . . . . . . . . . > M M > . . . . . . > M f : w v ( ) ` ` ` ` ` ` ` ",
"` ` ` ` ` ` ` R u . . . . u R ` ` ` ` ` ` ` ` ` ` ` ` R u . . . . . . . . . . M ' ' M . . . . . . M ' ' g $ w c ~ ` ` ` ` ` ` ` ",
"` ` ` ` ` ` ` R u . . . . u R ` ` ` ` ` ` ` ` ` ` ` ` R u . . . . . . . . . . B X.X.B . . . . . . B X.X.B     u R ` ` ` ` ` ` ` ",
"` ` ` ` ` ` ` R u . . . . u R ` ` ` ` ` ` ` ` ` ` ` ` R u . . . . . . . . . . N ....N . . . . . . N ....N     u R ` ` ` ` ` ` ` ",
"` ` ` / ` ` ` R u . . . . u E ` ` ` ` / ` ` ` ` ` ` ` R u . . . . . . . . . . d _ _ d . . : 9 6 - d _ _ d     u R ` ` ` ` ` ` ` ",
"` ` / L ^ ` / R u . . . . u E ` ` ` / L ^ ` / ` ` ` ` R u   . . . . . . . . . : d d : . . 9 Z Z 6 ; d d : .   u R ` ` ` ` ` ` ` ",
"` ` ` ! K ! K Y u . . . . w v ~ ) ` ` ! K ! K / ` ` ` ~ c w *   . . . . . . . . . . . . . 9 Z Z 9 . . . . . . u R ` ` ` ` ` ` ` ",
"` ` ` / K ! K Y u . . . . * w c ~ ` ` / K ! K / ` ` ` ) ( P w . . . . . . . . . . . . . . : 9 9 : . . . . . . u R ` ` ` ` ` ` ` ",
"` ` ` ` / ` / R u . . . . . . w v E E R Y R Y R R R R E Q b t o @ . . . . . . . . . . . . . . . . . . . . * w c ~ ` ` ` ` ` ` ` ",
"` ` ` ` ` ` ` R u . . . . . . * w u u u p p p p u u u u p y 4 3 o . . .   . . . . . . . . . . . . . . . . w v ~ ) ` ` ` ` ` ` ` ",
"` ` ` ` ` ` ` R u . . . . . . . . . . . . . . . . . . . . X , < 2 o o     . . . . . . . . . . . . . . * w c ~ ` ` ` ` ` ` ` ` ` ",
"` ` ` ` ` ` ` R u . . . . . . . . . . . . . . . . . . . . # , 1 < 3 o . . . . . . . . . . . . . . . . w v ~ ) ` ` ` ` ` ` ` ` ` ",
"` ` ` ` ` ` ` ~ c w * . . . . . . . . . . . . . . . . . . @ 3 < 1 < 2 o @ . . . . . . . . . . . . * w c ~ ` ` ` ` ` ` ` ` ` ` ` ",
"` ` ` ` ` ` ` ) ~ v w . . . . . . . . . . . . . . . . . . @ @ 2 < 1 < 3 o . . . . . . . . . . . . w v ~ ) ` ` ` ` ` ` ` ` ` ` ` ",
"` ` ` ` ` ` ` ` ` E u . . . . . . . . . . . . . . . . . . . . @ 3 < 1 < 2 X X X X X X X X X X O w c ~ ` ` ` ` ` ` ` ` ` ` ` ` ` ",
"` ` ` ` ` ` ` ` ` E u . . . . . . . . . . . . . . . . . . . . @ @ 2 < 1 < , , , , , , , , , , 5 b ~ ) ` ` ` ` ` ` ` ` ` ` ` ` ` ",
"` ` ` ` ` ` ` ` ` ~ c w * . . . . . . . . . . . . . . . . . . . . @ 3 , , , , 0 k k 0 , , , , h W ` ` ` ` ` ` ` ` ` ` ` ` ` ` ` ",
"` ` ` ` ` ` ` ` ` ) ~ v w . . . . . . . . . . . . . . . . . . . . @ @ # # + X j ] ] j X X # X i Q ` ` ` ` ` ` ` ` ` ` ` ` ` ` ` ",
"` ` ` ` ` ` ` ` ` ` ` ~ c w * . . . . . . . . . . . . . . . . . . . . . . . . M  . .M . . . . u R ` ` ` ` ` ` ` ` ` ` ` ` ` ` ` ",
"` ` ` ` ` ` ` ` ` ` ` ) ~ v w . . . . . . . . . . . . . . . . . . . . . . . . > M M > . . . . u R ` ` ` ` ` ` ` ` ` ` ` ` ` ` ` ",
"` ` ` / ` ` ` ` ` ` ` ` ` E u . . . . . . . . . . . . . . . . . . . . . . . . . . . . . . . . u R ` ` / ` ` ` ` ` ` ` ` ` ` ` ` ",
"` ` / L ^ ` / ` ` ` ` ` ` E u . . . . . . . . . . . . . . . . . . . . . . . . . . . . . . . . u R ` / L ^ ` / ` ` ` ` ` ` ` ` ` ",
"` ` ` ! K ! K / ` ` ` ` ` R u . . . . . . . . . . . . . . . . . . . . . . . . . . . . . . * w c ~ ` ` ! K ! K / ` ` ` ` ` ` ` ` ",
"` ` ` / K ! K / ` ` ` ` ` R u . . . . . . . . . . . . . . . . . . . . . . . . . . . . . . w v ~ ) ` ` / K ! K / ` ` ` ` ` ` ` ` ",
"` ` ` ` / ` / ` ` ` ` ` ` R u . . . . . . * ; ; * . . . . ; ; ; ; . . ; ; ; ; . . . . . . u E ` ` ` ` ` / ` / ` ` ` ` ` ` ` ` ` ",
"` ` ` ` ` ` ` ` ` ` ` ` ` R u . . . . . . ; 7 7 ; . . . . ; 7 7 ; . . ; 7 7 ; . . . . . . u E ` ` ` ` ` ` ` ` ` ` ` ` ` ` ` ` ` ",
"` ` ` ` ` ` ` ` ` ` ` ` ` R u . . . . . . ; a a ; . . . . ; a a ; . . ; a a ; . . . . . . u R ` ` ` ` ` ` ` ` ` ` ` ` ` ` ` ` ` ",
"` ` ` ` ` ` ` ` ` ` ` ` ` R u . . . . . . ; 7 7 ; . . . . ; 7 7 ; . . ; 7 7 ; . . . . . . u R ` ` ` ` ` ` ` ` ` ` ` ` ` ` ` ` ` ",
"` ` ` ` ` ` ` ` ` ` ` ` ` R u . . . . . . * : : ; . . . . * : : ; . . ; : : * . . . . . . u R ` ` ` ` ` ` ` ` ` ` ` ` ` ` ` / ` ",
"` ` ` ` ` ` ` ` ` ` ` / ` U q . . . . . . . @ @ . . . . . . @ @ . . . . @ @ . . . . . . . u R ` ` ` ` ` ` ` ` ` ` ` ` / ` ^ L / ",
"` ` ` ` ` ` ` ` ` ` / K ! G l w * . . .   * w w * . . .   % w w * . . .   * w w * . . * w c ~ ` ` ` ` ` ` ` ` ` ` ` / K ! K ^ ` ",
"` ` ` ` ` ` ` ` ` ` / K ! H Q v w . . .   w v P w . . .   & v P w . .     w P P w . . w v ~ ) ` ` ` ` ` ` ` ` ` ` ` / K ! K / ` ",
"` ` ` ` ` ` ` ` ` ` ` / ` / ` ~ c u u u u c ( ( c u u u u c ~ ( c u u u u c ( ( c u u c ~ ` ` ` ` ` ` ` ` ` ` ` ` ` ` / ` / ` ` ",
"` ` ` ` ` ` ` ` ` ` ` ` ` ` ` ) ~ R R R R ~ ) ) ~ R R R R ~ ) ) ~ R R R R ~ ) ) ~ R R ~ ) ` ` ` ` ` ` ` ` ` ` ` ` ` ` ` ` ` ` ` ",
"` ` ` ` ` ` ` ` ` ` ` ` ` ` ` ` ` ` ` ` ` ` ` ` ` ` ` ` ` ` ` ` ` ` ` ` ` ` ` ` ` ` ` ` ` ` ` ` ` ` ` ` ` ` ` ` ` ` ` ` ` ` ` ` ",
"` ` ` ` ` ` ` ` ` ` ` ` ` ` ` ` ` ` ` ` ` ` ` ` ` ` ` ` ` ` ` ` ` ` ` ` ` ` ` ` ` ` ` ` ` ` ` ` ` ` ` ` ` ` ` ` ` ` ` ` ` ` ` ` ",
"` ` ` ` ` ` ` ` ` ` ` ` ` ` ` ` ` ` ` ` ` ` ` ` ` ` ` ` ` ` ` ` ` ` ` ` ` ` ` ` ` ` ` ` ` ` ` ` ` ` ` ` ` ` ` ` ` ` ` ` ` ` ` ` "
};
