/* XPM */
static char *c3e0e4e51a524a72a2d65cce0833f12d[] = {
/* columns rows colors chars-per-pixel */
"64 64 114 2 ",
"   c #2D2A27",
".  c #2E2D2D",
"X  c #3A2624",
"o  c #352926",
"O  c #3B2F26",
"+  c #392728",
"@  c #322D2C",
"#  c #3B2929",
"$  c #2F302A",
"%  c #303025",
"&  c #363D24",
"*  c #32322C",
"=  c #38332E",
"-  c #362E30",
";  c #343331",
":  c #383431",
">  c #3A3934",
",  c #551E1E",
"<  c #5A1D1D",
"1  c #611B1B",
"2  c #452523",
"3  c #4B2322",
"4  c #512B21",
"5  c #5B3B26",
"6  c #413D37",
"7  c #4F3538",
"8  c #423D39",
"9  c #4A3F3B",
"0  c #503639",
"q  c #622A27",
"w  c #3A4424",
"e  c #3C442D",
"r  c #3E492B",
"t  c #43581F",
"y  c #537D19",
"u  c #47432A",
"i  c #48442A",
"p  c #424D2E",
"a  c #4C4B2C",
"s  c #43502F",
"d  c #4C423D",
"f  c #4C4B39",
"g  c #514F3F",
"h  c #52503F",
"j  c #614527",
"k  c #614B3F",
"l  c #7C4135",
"z  c #4D632E",
"x  c #4E6631",
"c  c #506533",
"v  c #526934",
"b  c #5D7C37",
"n  c #5E7D38",
"m  c #647C36",
"M  c #544742",
"N  c #554944",
"B  c #525142",
"V  c #575941",
"C  c #5B5A42",
"Z  c #745D59",
"A  c #75615B",
"S  c #97474E",
"D  c #866965",
"F  c #8B6D69",
"G  c #8B756C",
"H  c #8E7B6E",
"J  c #568217",
"K  c #5C8F16",
"L  c #5E9415",
"P  c #61981A",
"I  c #5F8038",
"U  c #66833E",
"Y  c #669034",
"T  c #699733",
"R  c #6C973C",
"E  c #6E993D",
"W  c #78963B",
"Q  c #709D3D",
"!  c #76AF36",
"~  c #73A13F",
"^  c #79AE3D",
"/  c #77B037",
"(  c #7CB43D",
")  c #75A540",
"_  c #7DB443",
"`  c #8C8850",
"'  c #81BA44",
"]  c #9D9966",
"[  c #AF926D",
"{  c #A6827D",
"}  c #A3867F",
"|  c #A4877F",
" . c #A9857F",
".. c #A19772",
"X. c #B5AF64",
"o. c #C0BA73",
"O. c #A38780",
"+. c #A98580",
"@. c #AC8781",
"#. c #A78980",
"$. c #A98B82",
"%. c #AE8981",
"&. c #AB8C83",
"*. c #B18A85",
"=. c #B68E88",
"-. c #B88F89",
";. c #AB9085",
":. c #AD9187",
">. c #BA918A",
",. c #B9998F",
"<. c #C79F98",
"1. c #CAA29A",
"2. c #CEA59C",
"3. c #CEA89E",
/* pixels */
"' ' ' ' ' ' ' ' ' ' ' ' ' ' ' ' ' ' ( L ! ' ( ' ' ' ' ' ' ' ' ' ' ' ( L ! ' ( ' ' ' ' ' ' ' ' ' ' ' ( L ! ' ( ' ' ' ' ' ' ' ' ' ",
"' ' ' ' ' ' ' ' ' ' ' ' ' ' ' ' ' ' ' / L ! L ( ' ' ' ' ' ' ' ' ' ' ' / L ! L ( ' ' ' ' ' ' ' ' ' ' ' / L ! L ( ' ' ' ' ' ' ' ' ",
"' ' ' ' ' ' ' ' ' ' ' ' ' ' ' ' ' ' ' ( L ! L ( ' ' ' ' ' ' ' ' ' ' ' ( L ! L ( ' ' ' ' ' ' ' ' ' ' ' ( L ! L ( ' ' ' ' ' ' ' ' ",
"' ' ' ' ' ' ' ' ' ' ' ' ' ' ' ' ' ' ' ' ( ' ( ' ' ' ' ' ' ' ' ' ' ' ' ' ( ' ( ' ' ' ' ' ' ' ' ' ' ' ' ' ( ' ( ' ' ' ' ' ' ' ' ' ",
"' ' ' ' ' ' ' ' ' ' ' ' ' ' ' ' ' ' ' ' ' ' ' ' ' ' ' ' ' ' ' ' ' ' ' ' ' ' ' ' ' ' ' ' ' ' ' ' ' ' ' ' ' ' ' ' ' ' ' ' ' ' ' ' ",
"' ' ' ' ' ' ' ' ' ' ' ' ' ' ' ' ' ' ' ' ' ' ' ' ' ' ' ' ' ' ' ' ' ' ' ' ' ' ' ' ' ' ' ' ' ' ' ' ' ' ' ' ' ' ' ' ' ' ' ' ' ' ' ' ",
"' ' ' ' ' ' ' ' ' ' ' ' ' ' ' ' ' ' ' ' ' ' ' ' ' ' ' ' ' ' ' ' ' ' ' ' ' ' ' ' ' ' ' ' ' ' ' ' ' ' ' ' ' ' ' ' ' ' ' ' ' ' ' ' ",
"' ' ' ' ' ' ' ' ' ' ' ' ' ' ' ' ' ' ' ' ' ' ' ' ' ' ' ' ' ' ( ' ' ' ' ' ' ' ' ' ' ' ' ' ' ' ( ' ' ' ' ' ' ' ' ' ' ' ' ' ' ' ( ' ",
"' ' ' ' ' ' ' ' ' ' ' ' ' ' ' ' ' ' ' ' ' ' ' ' ' ' ' ( ' / P ( ' ' ' ' ' ' ' ' ' ' ' ( ' / P ( ' ' ' ' ' ' ' ' ' ' ' ( ' / P ( ",
"' ' ' ' ' ' ' ' ' ' ' ' ' ' ' ' ' ' ' ' ' ' ' ' ' ' ( L ! L ! ' ' ' ' ' ' ' ' ' ' ' ( L ! L ! ' ' ' ' ' ' ' ' ' ' ' ( L ! L / ' ",
"' ' ' ' ' ' ' ' ' ' ' ' ' ' ' ' ' ' ' ' ' ' ' ' ' ' ( L ! L ( ' ' ' ' ' ' ' ' ' ' ' ( L ! L ( ' ' ' ' ' ' ' ' ' ' ' ( L ! L ( ' ",
"' ' ' ' ' ' ' ' ' ' ' ' ' ' ' ' ' ' ' ' ' ' ' ' ' ' ' ( ' ( ' ' ' ' ' ' ' ' ' ' ' ' ' ( ' ( ' ' ' ' ' ' ' ' ' ' ' ' ' ( ' ( ' ' ",
"' ' ' ' ' ' ' ' ' ' ' ' ' ' ' ' ' ' ' ' ' ' ' ' ' ' ' ' ' ' ' ' ' ' ' ' ' ' ' ' ' ' ' ' ' ' ' ' ' ' ' ' ' ' ' ' ' ' ' ' ' ' ' ' ",
"' ' ' ' ' ' ' ' ' ' ' ' ' ' ' ' ' ' ' ' ' ' ' ' ' ' ' ' ' ' ' ' ' ' ' ' ' ' ' ' ' ' ' ' ' ' ' ' ' ' ' ' ' ' ' ' ' ' ' ' ' ' ' ' ",
"' ' ' ' ' ' ' ' ' ' ' ' ' ' ' ' ' ' ' ' ' ' ' ' ' ' ' ' ' ' ' ' ' ' ' ' ' ' ' ' ' ' ' ' ' ' ' ' ' ' ' ' ' ' ' ' ' ' ' ' ' ' ' ' ",
"' ' ' ' ' ' ' ' ' ' ' ' ' ' ' ' ' ' ' ( ' ' ' ' ' ' ' ' ' ' ' ' ' ' ' ' ' ' ' ' ' ' ' ' ' ' ' ' ' ' ' ' ' ' ' ' ' ' ' ' ' ' ' ' ",
"' ' ' ' ' ' ' ' ' ' ' ' ' ' ' ' ' ' ( P / ' ( ' ' ' ' ' ' ' ' ' ' ' ' ' ' ' ' ' ' ' ' ' ' ' ' ' ' ' ' ' ' ' ' ' ' ' ' ' ' ' ' ' ",
"' ' ' ' ' ' ' ' ' ' ' ' ' ' ' ' ' ' ' ! L ! L ( ' ' ' ' ' ' ' _ Q R R R R Q _ ' ' ' ' ' ' _ Q R R R R Q _ ' ' ' ' ' ' ' ' ' ' ' ",
"' ' ' ' ' ' ' ' ' ' ' ' ' ' ' ' ' ' ' ( L ! L ( ' ' ' ' ' ' ' ~ x r r r r x ~ ' ' ' ' ' ' ~ x r r r r x ~ ' ' ' ' ' ' ' ' ' ' ' ",
"' ' ' _ ~ ~ _ ' ' ' ' ' ' ' ' ' ' ' ' ' ( ' ( ' ' ' ' ' ' _ ~ U V M N N M V U ~ _ ' ' _ ~ U C N N N N C U ~ _ ' ' ' ' ' ' ' ' ' ",
"' ' ' ~ c c ~ ' ' ' ' ' ' ' ' ' ' ' ' ' ' ' ' ' ' ' ' ' ' Q x V G O.+.+.| G V x Q ' ' Q x C H $. . .$.H C x Q ' ' ' ' ' ' ' ' ' ",
"' _ ~ b e e b ~ _ ' ' ' ' ' ' ' ' ' ' ' ' ' ' ' ' ' ' ' ' R r M } <.=.=.1.#.N r R ' ' R r N &.2.=.=.3.;.N r R ' ' ' ' ' ' ' ' ' ",
"' ~ v e * * e v ~ ' ' ' ' ' ' ' ' ' ' ' ' ' ' ' ' ' ' ' ' R r M { *.Z Z >.%.N r E ' ' E r N @.-.Z A ,.:.N r R ' ' ' ' ' ' ' ' ' ",
"' R p . . . . p E ' ' ' ' ' ' ' ' ' ' ' ' ' ' ' ' ' ' ' ' R r 9 D D 9 9 F G d e b Q Q b e d F F 9 d G G d r R ' ' ' ' ' ' ' ' ' ",
"' R p . . . . p E ' ' ' ' ' ' ' ' ' ' ' ' ' ' ' ' ' ' ( ' Y w = 9 9 ; ; d d : * e p p e * : d d ; ; d d = p R ' ' ' ' ' ' ' ' ' ",
"' R p . . . . e b ~ _ ' ' ' ' ' ' ' ' ' ' ' ' ' ' ' ( L ! y p       . .     . . . . . . . .     . .       p R ' ' ' ' ' ' ' ' ' ",
"' R p . . . . * e v ~ ' ' ' ' ' ' ' ' ' ' ' ' ' ' ' ( L ! y p     . . . . . . . . . . . . . . . . . .     p R ' ' ' ' ' ' ' ' ' ",
"' ~ v e * . . . . e b ~ _ ' ' ' ' ' ' ' ' ' ' ' ' ' ' ^ ~ b e . . . . . . . . . . . . . . . . . . . .     p E ' ' ' ' ' ' ' ' ' ",
"' _ ~ b e . . . . * e v ~ ' ' ' ' ' ' ' ' ' ' ' ' ' ' ~ v e * . . . . . . . . . . . . . . . . . . . .     p E ' ' ' ' ' ' ' ' ' ",
"' ' ' ~ v e * . . . . p E ' ' ' ' ' ' ' ' ' ' ' ' ' ' R p . . . . . . . . . . > B B > . . . . . . > B g : e b ~ _ ' ' ' ' ' ' ' ",
"' ' ' _ ~ b e . . . . p E ' ' ' ' ' ' ' ' ' ' ' ' ' ' R p . . . . . . . . . . B ] ] B . . . . . . B ] ] h $ e v ~ ' ' ' ' ' ' ' ",
"' ' ' ( ' E p . . . . e b ~ _ ' ' ' ' ( ' ' ' ' ' ' ' R p . . . . . . . . . . C o.o.C . . . . . . C o.o.C     p R ' ' ' ' ' ' ' ",
"' ' ( P / R p . . . . * e v ~ ' ' ' ( P / ' ( ' ' ' ' R p . . . . . . . . . . C X.X.C . . . . . . C X.X.C     p R ' ' ' ' ' ' ' ",
"' ' ' ! L T t e * . . . . p E ' ' ' ' ! L ! L ( ' ' ' R p . . . . . . . . . . f ` ` f . . : 7 7 - f ` ` f     p R ' ' ' ' ' ' _ ",
"' ' ' ( L ! J b e . . . . p E ' ' ' ' ( L ! L ( ' ' ' R p   . . . .   . . . . : f f : . . 7 S S 7 ; f f : .   p R ' ' ' ' ' ' ~ ",
"' ' ' ' ( ' ( E p . . . . e b ~ _ ' ' ' ( ' ( ' ' ' ' ~ v e *   . . . . . . . . . . . . . 7 S S 0 . . . . . . p R ' ' ' ' ' ' R ",
"' ' ' ' ' ' ' E p . . . . * e v ~ ' ' ' ' ' ' ' ' ' ' _ ) I e . . . . . . . . . . . . . . : 7 7 : . . . . . . p R ' ' ' ' ' ' R ",
"' ' ' ' ' ' ' R p . . . . . . e b E E R R R R R R R R E Q m u o @ . . . . . . . . . . . . . . . . . . . . * e v ~ ' ' ' ' ' ' ~ ",
"' ' ' ' ' ' ' R p . . . . . . * e p p p p p s s p p p p s i 4 3 o . . .   . . . . . . . . . . . . . . . . e b ~ _ ' ' ' ' ' ' _ ",
"' ' ' ' ' ' ' R p . . . . . . . . . . . . . . . . . . . . X , < 2 o o     . . . . . . . . . . . . . . * e v ~ ' ' ' ' ' ' ' ' ' ",
"' ' ' ' ' ' ' R p . . . . . . . . . . . . . . . . . . . . # , 1 < 3 o . . . . . . . . . . . . . . . . e b ~ _ ' ' ' ' ' ' ' ' ' ",
"' ' ' ' ' ' ' ~ v e * . . . . . . . . . . . . . . . . . . @ 3 < 1 < 2 o @ . . . . . . . . . . . . * e v ~ ' ' ' ' ' ' ' ' ' ' ' ",
"' ' ' ' ' ' ' _ ~ b e . . . . . . . . . . . . . . . . . . @ @ 2 < 1 < 3 o .   . . . . . . . . . . e b ~ _ ' ' ' ' ' ' ' ' ' ' ' ",
"' ' ' ' ' ' ' ' ' E p . . . . . . . . . . . . . . . . . . . . @ 3 < 1 < 2 X X X X X X X X X X O e v ~ ' ' ' ' ' ' ' ' ' ' ' ' ' ",
"' ' ' ' ' ' ' ' ' E p . . . . . . . . . . . . . . . . . . . . @ @ 2 < 1 < , , , , , , , , , , 5 m ~ _ ' ' ' ' ' ' ' ' ' ' ' ' ' ",
"' ' ' ' ' ' ' ' ' ~ v e * . . . . . . . . . . . . . . . . . . . . @ 3 , , , , q l l q , , , , j W ' ' ' ' ' ' ' ' ' ' ' ' ' ' ' ",
"' ' ' ' ' ' ' ' ' _ ~ b e . . . . . . . . . . . . . . . . . . . . @ @ # # + X k [ [ k X + # X a Q ' ' ' ' ' ' ' ' ' ' ' ' ' ' ' ",
"' ' ' ( ' ' ' ' ' ' ' ~ v e * . . . . . . . . . . . . . . . . . . . . . . . . B ....B . . . . p R ' ' ( ' ' ' ' ' ' ' ' ' ' ' ' ",
"' ' ( P / ' ( ' ' ' ' _ ~ b e . . . . . . . . . . . . . . . . . . . . . . . . > B B > . . . . p R ' ( P / ' ( ' ' ' ' ' ' ' ' ' ",
"' ' ' ! L ! L ( ' ' ' ' ' E p . . . . . . . . . . . . . . . . . . . . . . . . . . . . . . . . p R ' ' ! L ! L ( ' ' ' ' ' ' ' ' ",
"' ' ' ( L ! L ( ' ' ' ' ' E p . . . . . . . . . . . . . . . . . . . . . . . . . . . . . . . . p R ' ' ( L ! L ( ' ' ' ' ' ' ' ' ",
"' ' ' ' ( ' ( ' ' ' ' ' ' R p . . . . . . . . . . . . . . . . . . . . . . . . . . . . . . * e v ~ ' ' ' ( ' ( ' ' ' ' ' ' ' ' ' ",
"' ' ' ' ' ' ' ' ' ' ' ' ' R p . . . . . . . . . . . . . . . . . . . . . . . . . . . . . . e b ~ _ ' ' ' ' ' ' ' ' ' ' ' ' ' ' ' ",
"' ' ' ' ' ' ' ' ' ' ' ' ' R p . . . . . . ; ; ; * . . . . * ; ; * . . * ; ; ; . . . . . . p E ' ' ' ' ' ' ' ' ' ' ' ' ' ' ' ' ' ",
"' ' ' ' ' ' ' ' ' ' ' ' ' R p . . . . . . ; 8 8 ; . . . . ; 8 8 ; . . ; 8 8 ; . . . . . . p E ' ' ' ' ' ' ' ' ' ' ' ' ' ' ' ' ' ",
"' ' ' ' ' ' ' ' ' ' ' ' ' R p . . . . . . ; 8 8 ; . . . . ; 6 8 ; . . ; 8 8 ; . . . . . . p R ' ' ' ' ' ' ' ' ' ' ' ' ' ' ' ( ' ",
"' ' ' ' ' ' ' ' ' ' ' ( ' Y w . . . . . . @ = = @ . . . . @ = = @ . . @ = = @ . . . . . . p R ' ' ' ' ' ' ' ' ' ' ' ' ( ' / P ( ",
"' ' ' ' ' ' ' ' ' ' ( L ! J z e * . . .   * e e * . . .   % e e * . . .   * e e * . . * e v ~ ' ' ' ' ' ' ' ' ' ' ' ( L ! L / ' ",
"' ' ' ' ' ' ' ' ' ' ( L ! K Q n e . . .   e n I e . . .   & b I e . .     e I I e . . e b ~ _ ' ' ' ' ' ' ' ' ' ' ' ( L ! L ( ' ",
"' ' ' ' ' ' ' ' ' ' ' ( ' ( ' ~ v p p p p v ) ) v p p p p v ~ ) v p p p p v ) ) v p p v ~ ' ' ' ' ' ' ' ' ' ' ' ' ' ' ( ' ( ' ' ",
"' ' ' ' ' ' ' ' ' ' ' ' ' ' ' _ ~ R R R R ~ _ _ ~ R R R R ~ _ _ ~ R R R R ~ _ _ ~ R R ~ _ ' ' ' ' ' ' ' ' ' ' ' ' ' ' ' ' ' ' ' ",
"' ' ' ' ' ' ' ' ' ' ' ' ' ' ' ' ' ' ' ' ' ' ' ' ' ' ' ' ' ' ' ' ' ' ' ' ' ' ' ' ' ' ' ' ' ' ' ' ' ' ' ' ' ' ' ' ' ' ' ' ' ' ' ' ",
"' ' ' ' ' ' ' ' ' ' ' ' ' ' ' ' ' ' ' ' ' ' ' ' ' ' ' ' ' ' ' ' ' ' ' ' ' ' ' ' ' ' ' ' ' ' ' ' ' ' ' ' ' ' ' ' ' ' ' ' ' ' ' ' ",
"' ' ' ' ' ' ' ' ' ' ' ' ' ' ' ' ' ' ' ' ' ' ' ' ' ' ' ' ' ' ' ' ' ' ' ' ' ' ' ' ' ' ' ' ' ' ' ' ' ' ' ' ' ' ' ' ' ' ' ' ' ' ' ' "
};
