/* XPM */
static char *d81c13d3cfe746e6b52ed0f71bd23c05[] = {
/* columns rows colors chars-per-pixel */
"64 64 112 2 ",
"   c #2D2A27",
".  c #2E2D2D",
"X  c #3A2624",
"o  c #352926",
"O  c #3B2F26",
"+  c #392728",
"@  c #322D2C",
"#  c #3B2929",
"$  c #2F302A",
"%  c #303025",
"&  c #363D26",
"*  c #32322C",
"=  c #38332E",
"-  c #362E30",
";  c #343331",
":  c #383431",
">  c #3A3934",
",  c #551E1E",
"<  c #5A1D1D",
"1  c #611B1B",
"2  c #452523",
"3  c #4B2322",
"4  c #512B21",
"5  c #5B3B26",
"6  c #413D37",
"7  c #4F3538",
"8  c #423D39",
"9  c #4A3F3B",
"0  c #503639",
"q  c #622A27",
"w  c #3A4424",
"e  c #3C432D",
"r  c #3E492B",
"t  c #537D19",
"y  c #47432A",
"u  c #48442A",
"i  c #414D2E",
"p  c #4C4B2C",
"a  c #43502F",
"s  c #4C423D",
"d  c #4C4B39",
"f  c #514F3F",
"g  c #52503F",
"h  c #614527",
"j  c #614B3F",
"k  c #7C4135",
"l  c #4D632E",
"z  c #4E6631",
"x  c #506533",
"c  c #526934",
"v  c #5C7C37",
"b  c #5E7D38",
"n  c #647C36",
"m  c #544742",
"M  c #554944",
"N  c #525142",
"B  c #575941",
"V  c #5B5A42",
"C  c #745D59",
"Z  c #75615B",
"A  c #97474E",
"S  c #866965",
"D  c #8B6D69",
"F  c #8B756C",
"G  c #8E7B6E",
"H  c #548117",
"J  c #5C8F16",
"K  c #5E9415",
"L  c #61981A",
"P  c #5F8038",
"I  c #65823D",
"U  c #669034",
"Y  c #6C973C",
"T  c #6E993D",
"R  c #78963B",
"E  c #709D3E",
"W  c #76AF36",
"Q  c #73A23F",
"!  c #79AE3D",
"~  c #77B037",
"^  c #7CB43D",
"/  c #75A540",
"(  c #7DB443",
")  c #8C8850",
"_  c #81BA44",
"`  c #9D9966",
"'  c #AF926D",
"]  c #A6827D",
"[  c #A3867F",
"{  c #A4877F",
"}  c #A9857F",
"|  c #A19772",
" . c #B5AF64",
".. c #C0BA73",
"X. c #A38780",
"o. c #A98580",
"O. c #AC8781",
"+. c #A78980",
"@. c #A98B82",
"#. c #AE8981",
"$. c #AB8C83",
"%. c #B18A85",
"&. c #B68E88",
"*. c #B88F89",
"=. c #AB9085",
"-. c #AD9187",
";. c #BA918A",
":. c #B9998F",
">. c #C79F98",
",. c #CAA29A",
"<. c #CEA59C",
"1. c #CEA89E",
/* pixels */
"_ _ _ _ _ _ _ _ _ _ _ _ _ _ _ _ _ _ ^ K W _ ^ _ _ _ _ _ _ _ _ _ _ _ ^ K W _ ^ _ _ _ _ _ _ _ _ _ _ _ ^ K W _ ^ _ _ _ _ _ _ _ _ _ ",
"_ _ _ _ _ _ _ _ _ _ _ _ _ _ _ _ _ _ _ ~ K W K ^ _ _ _ _ _ _ _ _ _ _ _ ~ K W K ^ _ _ _ _ _ _ _ _ _ _ _ ~ K W K ^ _ _ _ _ _ _ _ _ ",
"_ _ _ _ _ _ _ _ _ _ _ _ _ _ _ _ _ _ _ ^ K W K ^ _ _ _ _ _ _ _ _ _ _ _ ^ K W K ^ _ _ _ _ _ _ _ _ _ _ _ ^ K W K ^ _ _ _ _ _ _ _ _ ",
"_ _ _ _ _ _ _ _ _ _ _ _ _ _ _ _ _ _ _ _ ^ _ ^ _ _ _ _ _ _ _ _ _ _ _ _ _ ^ _ ^ _ _ _ _ _ _ _ _ _ _ _ _ _ ^ _ ^ _ _ _ _ _ _ _ _ _ ",
"_ _ _ _ _ _ _ _ _ _ _ _ _ _ _ _ _ _ _ _ _ _ _ _ _ _ _ _ _ _ _ _ _ _ _ _ _ _ _ _ _ _ _ _ _ _ _ _ _ _ _ _ _ _ _ _ _ _ _ _ _ _ _ _ ",
"_ _ _ _ _ _ _ _ _ _ _ _ _ _ _ _ _ _ _ _ _ _ _ _ _ _ _ _ _ _ _ _ _ _ _ _ _ _ _ _ _ _ _ _ _ _ _ _ _ _ _ _ _ _ _ _ _ _ _ _ _ _ _ _ ",
"_ _ _ _ _ _ _ _ _ _ _ _ _ _ _ _ _ _ _ _ _ _ _ _ _ _ _ _ _ _ _ _ _ _ _ _ _ _ _ _ _ _ _ _ _ _ _ _ _ _ _ _ _ _ _ _ _ _ _ _ _ _ _ _ ",
"_ _ _ _ _ _ _ _ _ _ _ _ _ _ _ _ _ _ _ _ _ _ _ _ _ _ _ _ _ _ ^ _ _ _ _ _ _ _ _ _ _ _ _ _ _ _ ^ _ _ _ _ _ _ _ _ _ _ _ _ _ _ _ ^ _ ",
"_ _ _ _ _ _ _ _ _ _ _ _ _ _ _ _ _ _ _ _ _ _ _ _ _ _ _ ^ _ ~ L ^ _ _ _ _ _ _ _ _ _ _ _ ^ _ ~ L ^ _ _ _ _ _ _ _ _ _ _ _ ^ _ ~ L ^ ",
"_ _ _ _ _ _ _ _ _ _ _ _ _ _ _ _ _ _ _ _ _ _ _ _ _ _ ^ K W K W _ _ _ _ _ _ _ _ _ _ _ ^ K W K W _ _ _ _ _ _ _ _ _ _ _ ^ K W K ~ _ ",
"_ _ _ _ _ _ _ _ _ _ _ _ _ _ _ _ _ _ _ _ _ _ _ _ _ _ ^ K W K ^ _ _ _ _ _ _ _ _ _ _ _ ^ K W K ^ _ _ _ _ _ _ _ _ _ _ _ ^ K W K ^ _ ",
"_ _ _ _ _ _ _ _ _ _ _ _ _ _ _ _ _ _ _ _ _ _ _ _ _ _ _ ^ _ ^ _ _ _ _ _ _ _ _ _ _ _ _ _ ^ _ ^ _ _ _ _ _ _ _ _ _ _ _ _ _ ^ _ ^ _ _ ",
"_ _ _ _ _ _ _ _ _ _ _ _ _ _ _ _ _ _ _ _ _ _ _ _ _ _ _ _ _ _ _ _ _ _ _ _ _ _ _ _ _ _ _ _ _ _ _ _ _ _ _ _ _ _ _ _ _ _ _ _ _ _ _ _ ",
"_ _ _ _ _ _ _ _ _ _ _ _ _ _ _ _ _ _ _ _ _ _ _ _ _ _ _ _ _ _ _ _ _ _ _ _ _ _ _ _ _ _ _ _ _ _ _ _ _ _ _ _ _ _ _ _ _ _ _ _ _ _ _ _ ",
"_ _ _ _ _ _ _ _ _ _ _ _ _ _ _ _ _ _ _ _ _ _ _ _ _ _ _ _ _ _ _ _ _ _ _ _ _ _ _ _ _ _ _ _ _ _ _ _ _ _ _ _ _ _ _ _ _ _ _ _ _ _ _ _ ",
"_ _ _ _ _ _ _ _ _ _ _ _ _ _ _ _ _ _ _ ^ _ _ _ _ _ _ _ _ _ _ _ _ _ _ _ _ _ _ _ _ _ _ _ _ _ _ _ _ _ _ _ _ _ _ _ _ _ _ _ _ _ _ _ _ ",
"_ _ _ _ _ _ _ _ _ _ _ _ _ _ _ _ _ _ ^ L ~ _ ^ _ _ _ _ _ _ _ _ _ _ _ _ _ _ _ _ _ _ _ _ _ _ _ _ _ _ _ _ _ _ _ _ _ _ _ _ _ _ _ _ _ ",
"_ _ _ _ _ _ _ _ _ _ _ _ _ _ _ _ _ _ _ W K W K ^ _ _ _ _ _ _ _ ( E Y Y Y Y E ( _ _ _ _ _ _ ( E Y Y Y Y E ( _ _ _ _ _ _ _ _ _ _ _ ",
"_ _ _ _ _ _ _ _ _ _ _ _ _ _ _ _ _ _ _ ^ K W K ^ _ _ _ _ _ _ _ Q z r r r r z Q _ _ _ _ _ _ Q z r r r r z Q _ _ _ _ _ _ _ _ _ _ _ ",
"_ _ _ _ _ _ _ _ _ _ _ _ _ _ _ _ _ _ _ _ ^ _ ^ _ _ _ _ _ _ ( Q I B m M M m B I Q ( _ _ ( Q I V M M M M V I Q ( _ _ _ _ _ _ _ _ _ ",
"_ _ _ _ _ _ _ _ _ _ _ _ _ _ _ _ _ _ _ _ _ _ _ _ _ _ _ _ _ E z B F X.o.o.{ F B z E _ _ E z V G @.} } @.G V z E _ _ _ _ _ _ _ _ _ ",
"_ _ _ _ _ _ _ _ _ _ _ _ _ _ _ _ _ _ _ _ _ _ _ _ _ _ _ _ _ Y r m [ >.&.&.,.+.M r Y _ _ Y r M $.<.&.&.1.=.M r Y _ _ _ _ _ _ _ _ _ ",
"_ _ _ _ _ _ _ _ _ _ _ _ _ _ _ _ _ _ _ _ _ _ _ _ _ _ _ _ _ Y r m ] %.C C ;.#.M r T _ _ T r M O.*.C Z :.-.M r Y _ _ _ _ _ _ _ _ _ ",
"_ _ _ _ _ _ _ _ _ _ _ _ _ _ _ _ _ _ _ _ _ _ _ _ _ _ _ _ _ Y r 9 S S 9 9 D F s e v E E v e s D D 9 s F F s r Y _ _ _ _ _ _ _ _ _ ",
"_ _ _ _ _ _ _ _ _ _ _ _ _ _ _ _ _ _ _ _ _ _ _ _ _ _ _ ^ _ U w = 9 9 ; ; s s : * e i i e * : s s ; ; s s = i Y _ _ _ _ _ _ _ _ _ ",
"_ _ _ _ _ _ _ _ _ _ _ _ _ _ _ _ _ _ _ _ _ _ _ _ _ _ ^ K W t i       . .     . . . . . . . .     . .       i Y _ _ _ _ _ _ _ _ _ ",
"_ _ _ _ _ _ _ _ _ _ _ _ _ _ _ _ _ _ _ _ _ _ _ _ _ _ ^ K W t i     . . . . . . . . . . . . . . . . . .     i Y _ _ _ _ _ _ _ _ _ ",
"_ _ _ _ _ ( Q Q ( _ _ _ _ _ _ _ _ _ _ _ _ _ _ _ _ _ _ ! Q v e . . . . . . . . . . . . . . . . . . . .     i T _ _ _ _ _ _ _ _ _ ",
"_ _ _ _ _ Q x x Q _ _ _ _ _ _ _ _ _ _ _ _ _ _ _ _ _ _ Q c e * . . . . . . . . . . . . . . . . . . . .     i T _ _ _ _ _ _ _ _ _ ",
"_ _ _ ( Q v e e v Q ( _ _ _ _ _ _ _ _ _ _ _ _ _ _ _ _ Y i . . . . . . . . . . > N N > . . . . . . > N f : e v Q ( _ _ _ _ _ _ _ ",
"_ _ _ Q c e * * e c Q _ _ _ _ _ _ _ _ _ _ _ _ _ _ _ _ Y i . . . . . . . . . . N ` ` N . . . . . . N ` ` g $ e c Q _ _ _ _ _ _ _ ",
"_ ( Q v e . . . . e v Q ( _ _ _ _ _ _ ^ _ _ _ _ _ _ _ Y i . . . . . . . . . . V ....V . . . . . . V ....V     i Y _ _ _ _ _ _ _ ",
"_ Q x & * . . . . * e c Q _ _ _ _ _ ^ L ~ _ ^ _ _ _ _ Y i . . . . . . . . . . V  . .V . . . . . . V  . .V     i Y _ _ _ _ _ _ _ ",
"Q v e . . . . . . . . e v Q ( _ _ _ _ W K W K ^ _ _ _ Y i . . . . . . . . . . d ) ) d . . : 7 7 - d ) ) d     i Y _ _ _ _ _ _ ( ",
"c e * . . . . . . . . * e c Q _ _ _ _ ^ K W K ^ _ _ _ Y i   . . . .   . . . . : d d : . . 7 A A 7 ; d d : .   i Y _ _ _ _ _ _ Q ",
"i . . . . * e e * . . . . e v Q ( _ _ _ ^ _ ^ _ _ _ _ Q c e *   . . . . . . . . . . . . . 7 A A 0 . . . . . . i Y _ _ _ _ _ _ Y ",
"i . . .   e P I r . . . . * e c Q _ _ _ _ _ _ _ _ _ _ ( / P e . . . . . . . . . . . . . . : 7 7 : . . . . . . i Y _ _ _ _ _ _ Y ",
"c e * * e c / E a . . . . . . e v T T Y Y Y Y Y Y Y Y T E n y o @ . . . . . . . . . . . . . . . . . . . . * e c Q _ _ _ _ _ _ Q ",
"Q v e e v / _ T i . . . . . . * e i i i i i a a i i i i a u 4 3 o . . .   . . . . . . . . . . . . . . . . e v Q ( _ _ _ _ _ _ ( ",
"_ Q x x Q _ _ Y i . . . . . . . . . . . . . . . . . . . . X , < 2 o o     . . . . . . . . . . . . . . * e c Q _ _ _ _ _ _ _ _ _ ",
"_ ( Q Q ( _ _ Y i . . . . . . . . . . . . . . . . . . . . # , 1 < 3 o . . . . . . . . . . . . . . . . e v Q ( _ _ _ _ _ _ _ _ _ ",
"_ _ _ _ _ _ _ Q c e * . . . . . . . . . . . . . . . . . . @ 3 < 1 < 2 o @ . . . . . . . . . . . . * e c Q _ _ _ _ _ _ _ _ _ _ _ ",
"_ _ _ _ _ _ _ ( Q v e . . . . . . . . . . . . . . . . . . @ @ 2 < 1 < 3 o .   . . . . . . . . . . e v Q ( _ _ _ _ _ _ _ _ _ _ _ ",
"_ _ _ _ _ _ _ _ _ T i . . . . . . . . . . . . . . . . . . . . @ 3 < 1 < 2 X X X X X X X X X X O e c Q _ _ _ _ _ _ _ _ _ _ _ _ _ ",
"_ _ _ _ _ _ _ _ _ T i . . . . . . . . . . . . . . . . . . . . @ @ 2 < 1 < , , , , , , , , , , 5 n Q ( _ _ _ _ _ _ _ _ _ _ _ _ _ ",
"_ _ _ _ _ _ _ _ _ Q c e * . . . . . . . . . . . . . . . . . . . . @ 3 , , , , q k k q , , , , h R _ _ _ _ _ _ _ _ _ _ _ _ _ _ _ ",
"_ _ _ _ _ _ _ _ _ ( Q v e . . . . . . . . . . . . . . . . . . . . @ @ # # + X j ' ' j X + # X p E _ _ _ _ _ _ _ _ _ _ _ _ _ _ _ ",
"_ _ _ ^ _ _ _ _ _ _ _ Q c e * . . . . . . . . . . . . . . . . . . . . . . . . N | | N . . . . i Y _ _ ^ _ _ _ _ _ _ _ _ _ _ _ _ ",
"_ _ ^ L ~ _ ^ _ _ _ _ ( Q v e . . . . . . . . . . . . . . . . . . . . . . . . > N N > . . . . i Y _ ^ L ~ _ ^ _ _ _ _ _ _ _ _ _ ",
"_ _ _ W K W K ^ _ _ _ _ _ T i . . . . . . . . . . . . . . . . . . . . . . . . . . . . . . . . i Y _ _ W K W K ^ _ _ _ _ _ _ _ _ ",
"_ _ _ ^ K W K ^ _ _ _ _ _ T i . . . . . . . . . . . . . . . . . . . . . . . . . . . . . . . . i Y _ _ ^ K W K ^ _ _ _ _ _ _ _ _ ",
"_ _ _ _ ^ _ ^ _ _ _ _ _ _ Y i . . . . . . . . . . . . . . . . . . . . . . . . . . . . . . * e c Q _ _ _ ^ _ ^ _ _ _ _ _ _ _ _ _ ",
"_ _ _ _ _ _ _ _ _ _ _ _ _ Y i . . . . . . . . . . . . . . . . . . . . . . . . . . . . . . e v Q ( _ _ _ _ _ _ _ _ _ _ _ _ _ _ _ ",
"_ _ _ _ _ _ _ _ _ _ _ _ _ Y i . . . . . . ; ; ; * . . . . * ; ; * . . * ; ; ; . . . . . . i T _ _ _ _ _ _ _ _ _ _ _ _ _ _ _ _ _ ",
"_ _ _ _ _ _ _ _ _ _ _ _ _ Y i . . . . . . ; 8 8 ; . . . . ; 8 8 ; . . ; 8 8 ; . . . . . . i T _ _ _ _ _ _ _ _ _ _ _ _ _ _ _ _ _ ",
"_ _ _ _ _ _ _ _ _ _ _ _ _ Y i . . . . . . ; 8 8 ; . . . . ; 6 8 ; . . ; 8 8 ; . . . . . . i Y _ _ _ _ _ _ _ _ _ _ _ _ _ _ _ ^ _ ",
"_ _ _ _ _ _ _ _ _ _ _ ^ _ U w . . . . . . @ = = @ . . . . @ = = @ . . @ = = @ . . . . . . i Y _ _ _ _ _ _ _ _ _ _ _ _ ^ _ ~ L ^ ",
"_ _ _ _ _ _ _ _ _ _ ^ K W H l e * . . .   * e e * . . .   % e e * . . .   * e e * . . * e c Q _ _ _ _ _ _ _ _ _ _ _ ^ K W K ~ _ ",
"_ _ _ _ _ _ _ _ _ _ ^ K W J E b e . . .   e b P e . . .   & v P e . .     e P P e . . e v Q ( _ _ _ _ _ _ _ _ _ _ _ ^ K W K ^ _ ",
"_ _ _ _ _ _ _ _ _ _ _ ^ _ ^ _ Q c i i i i c / / c i i i i c Q / c i i i i c / / c i i c Q _ _ _ _ _ _ _ _ _ _ _ _ _ _ ^ _ ^ _ _ ",
"_ _ _ _ _ _ _ _ _ _ _ _ _ _ _ ( Q Y Y Y Y Q ( ( Q Y Y Y Y Q ( ( Q Y Y Y Y Q ( ( Q Y Y Q ( _ _ _ _ _ _ _ _ _ _ _ _ _ _ _ _ _ _ _ ",
"_ _ _ _ _ _ _ _ _ _ _ _ _ _ _ _ _ _ _ _ _ _ _ _ _ _ _ _ _ _ _ _ _ _ _ _ _ _ _ _ _ _ _ _ _ _ _ _ _ _ _ _ _ _ _ _ _ _ _ _ _ _ _ _ ",
"_ _ _ _ _ _ _ _ _ _ _ _ _ _ _ _ _ _ _ _ _ _ _ _ _ _ _ _ _ _ _ _ _ _ _ _ _ _ _ _ _ _ _ _ _ _ _ _ _ _ _ _ _ _ _ _ _ _ _ _ _ _ _ _ ",
"_ _ _ _ _ _ _ _ _ _ _ _ _ _ _ _ _ _ _ _ _ _ _ _ _ _ _ _ _ _ _ _ _ _ _ _ _ _ _ _ _ _ _ _ _ _ _ _ _ _ _ _ _ _ _ _ _ _ _ _ _ _ _ _ "
};
