/* XPM */
static char *e8a296992db84f1fb5fbf58a53981eec[] = {
/* columns rows colors chars-per-pixel */
"64 64 102 2 ",
"   c #2D2A27",
".  c #2E2D2D",
"X  c #352926",
"o  c #382926",
"O  c #322D2C",
"+  c #3A2929",
"@  c #2F302A",
"#  c #303025",
"$  c #363D26",
"%  c #32322C",
"&  c #38332E",
"*  c #362E30",
"=  c #343331",
"-  c #393531",
";  c #3A3934",
":  c #571F1F",
">  c #5A1D1D",
",  c #611B1B",
"<  c #452523",
"1  c #4C2221",
"2  c #413D37",
"3  c #4F3538",
"4  c #423D39",
"5  c #4A3F3B",
"6  c #503639",
"7  c #374222",
"8  c #394324",
"9  c #3C442D",
"0  c #3E492B",
"q  c #4F7917",
"w  c #527A19",
"e  c #424D2E",
"r  c #43502F",
"t  c #4C423D",
"y  c #4C4B39",
"u  c #534E3F",
"i  c #52503F",
"p  c #4D632E",
"a  c #4E6631",
"s  c #506533",
"d  c #526934",
"f  c #5D7C37",
"g  c #5E7D38",
"h  c #544742",
"j  c #554A44",
"k  c #535042",
"l  c #575941",
"z  c #5B5A42",
"x  c #745D59",
"c  c #75615B",
"v  c #97474E",
"b  c #866965",
"n  c #8B6D69",
"m  c #8B756C",
"M  c #8E7B6E",
"N  c #548117",
"B  c #5C8F16",
"V  c #5E9415",
"C  c #61981A",
"Z  c #5F8038",
"A  c #638E32",
"S  c #65823D",
"D  c #659034",
"F  c #6C973C",
"G  c #6E993D",
"H  c #709E3E",
"J  c #76AF36",
"K  c #73A23F",
"L  c #77B037",
"P  c #7CB43D",
"I  c #75A540",
"U  c #7DB443",
"Y  c #8C8850",
"T  c #80B943",
"R  c #81BA44",
"E  c #9D9966",
"W  c #A2966F",
"Q  c #A6827D",
"!  c #A3867F",
"~  c #A4877F",
"^  c #A9857F",
"/  c #A29771",
"(  c #B5AF64",
")  c #C0BA73",
"_  c #A38780",
"`  c #A98580",
"'  c #AC8781",
"]  c #A78980",
"[  c #A98B82",
"{  c #AE8981",
"}  c #AB8C83",
"|  c #B18A85",
" . c #B68F89",
".. c #B88F89",
"X. c #AB9085",
"o. c #AD9187",
"O. c #BA918A",
"+. c #B9998F",
"@. c #C79F98",
"#. c #CAA29A",
"$. c #CEA59C",
"%. c #CEA89E",
/* pixels */
"R R R R R R R R R R R R R R R R R R P V J T P T R R R R R R R R R R P V J T P T R R R R R R R R R R P V J T P T R R R R R R R R ",
"R R R R R R R R R R R R R R R R R R R L V J V P R R R R R R R R R R R L V J V P R R R R R R R R R R R L V J V P R R R R R R R R ",
"R R R R R R R R R R R R R R R R R R R P V J V P R R R R R R R R R R R P V J V P R R R R R R R R R R R P V J V P R R R R R R R R ",
"R R R R R R R R R R R R R R R R R R R T P T P T R R R R R R R R R R R T P T P T R R R R R R R R R R R T P T P T R R R R R R R R ",
"R R R R R R R R R R R R R R R R R R R R R R R R R R R R R R R R R R R R R R R R R R R R R R R R R R R R R R R R R R R R R R R R ",
"R R R R R R R R R R R R R R R R R R R R R R R R R R R R R R R R R R R R R R R R R R R R R R R R R R R R R R R R R R R R R R R R ",
"R R R R R R R R R R R R R R R R R R R R R R R R R R R R R R R R R R R R R R R R R R R R R R R R R R R R R R R R R R R R R R R R ",
"R R R R R R R R R R R R R R R R R R R R R R R R R R R R R T P T R R R R R R R R R R R R R T P T R R R R R R R R R R R R R T P T ",
"R R R R R R R R R R R R R R R R R R R R R R R R R R T P T L C P R R R R R R R R R R T P T L C P R R R R R R R R R R T P T L C P ",
"R R R R R R R R R R R R R R R R R R R R R R R R R R P V J V J R R R R R R R R R R R P V J V J R R R R R R R R R R R P V J V L T ",
"R R R R R R R R R R R R R R R R R R R R R R R R R R P V J V P R R R R R R R R R R R P V J V P R R R R R R R R R R R P V J V P R ",
"R R R R R R R R R R R R R R R R R R R R R R R R R R T P T P T R R R R R R R R R R R T P T P T R R R R R R R R R R R T P T P T R ",
"R R R R R R R R R R R R R R R R R R R R R R R R R R R R R R R R R R R R R R R R R R R R R R R R R R R R R R R R R R R R R R R R ",
"R R R R R R R R R R R R R R R R R R R R R R R R R R R R R R R R R R R R R R R R R R R R R R R R R R R R R R R R R R R R R R R R ",
"R R R R R R R R R R R R R R R R R R R R R R R R R R R R R R R R R R R R R R R R R R R R R R R R R R R R R R R R R R R R R R R R ",
"R R R R R R R R R R R R R R R R R R T P T R R R R R R R R R R R R R R R R R R R R R R R R R R R R R R R R R R R R R R R R R R R ",
"R R R R R R R R R R R R R R R R R R P C L T P T R R R R R R R R R R R R R R R R R R R R R R R R R R R R R R R R R R R R R R R R ",
"R R R R R R R R R R R R R R R R R R R J V J V P R R R R R R R R R R R R R R R R R R R R R R R R R R R R R R R R R R R R R R R R ",
"R R R R R R R R R R R R R R R R R R R P V J V P R R R R R R R R R R R R R R R R R R R R R R R R R R R R R R R R R R R R R R R R ",
"R R R R R R R R R R R R R R R R R R R T P T P T R R R R R R R U H F F F F H U R R R R R R U H F F F F H U R R R R R R R R R R R ",
"R R R R R R R R R R R R R R R R R R R R R R R R R R R R R R R K a 0 0 0 0 a K T R R R R R K a 0 0 0 0 a K R R R R R R R R R R R ",
"R R R R R R R R R R R R R R R R R R R R R R R R R R R R R U K S l h j j h l S K U R R U K S z j j j j z S K U R R R R R R R R R ",
"R R R R R R R R R R R R R R R R R R R R R R R R R R R R R H a l m _ ` ` ~ m l a H R R H a z M [ ^ ^ [ M z a H R R R R R R R R R ",
"R R R R R R R R R R R R R R R R R R R R R R R R R R R R R F 0 h ! @. . .#.] j 0 F R R F 0 j } $. . .%.X.j 0 F R R R R R R R R R ",
"R R R R R R R R R R R R R R R R R R R R R R R R R R T P T A 7 h Q | x x O.{ j 0 G R R G 0 j ' ..x c +.o.j 0 F R R R R R R R R R ",
"R R R R R R R R R R R R R R R R R R R R R R R R R R P V J q 0 5 b b 5 5 n m t 9 g H H g 9 t n n 5 t m m t 0 F R R R R R R R R R ",
"R R R R R R R R R R R R R R R R R R R R R R R R R R P V J w e & 5 5 = = t t - % 9 e e 9 % - t t = = t t & e F R R R R R R R R R ",
"R R R R R U K K U R R R R R R R R R R R R R R R R R T P T F e     . . . . . . . . . .   . . . . . . .     e F R R R R R R R R R ",
"R R R R R K s s K R R R R R R R R R R R R R R R R R R R R G e     . . . . . . . . . . . . . . . . . .     e F R R R R R R R R R ",
"R R R U K f 9 9 f K U R R R R R R R R R R R R R R R R U K g 9 . . . . . . . . . . . . . . . . . . . .     e G R R R R R R R R R ",
"R R R K d 9 % % 9 d K R R R R R R R R R R R R R R R R K d 9 % . . . . . . . . . . . . . . . . . . . . .   e G R R R R R R R R R ",
"R U K f 9 . . . . 9 g K U R R R R R T P T R R R R R R F e . . . . . . . . . . ; k k ; . . . . . . ; k u - 9 g K U R R R R R R R ",
"R K s $ % . . . . % 9 d K R R R R R P C L T P T R R R F e . . . . . . . . . . k E E k . . . . . . k E E i @ 9 d K R R R R R R R ",
"K g 9 . . . . . . . . 9 g K U R R R R J V J V P R R R F e . . . . . . . . . . z ) ( z . . . . . . z ( ) z . . e F R R R R R R R ",
"d 9 % . . . . . . . . % 9 d K R R R R P V J V P R R R F e . . . . . . . . . . z ( ( z . . . . . . z ( ( z .   e F R R R R R R R ",
"e . . . . % 9 9 % . . . . 9 g K U R T T P T P T R R R G e   . . . . . . . . . y Y Y y . . - 3 3 * y Y Y y .   e F R R R R R R R ",
"e . . .   9 Z S 0 . . . . % 9 d K R R T R R R R R R R G e   . . . .   . . . . - y y - . . 3 v v 3 = y y - .   e F R R R R R R R ",
"d 9 % % 9 d I H r . . . . . . 9 g G G F F F F F F G G g 9       . . . . . . . . . . . . . 6 v v 6 . . . . . . e F R R R R R R R ",
"K f 9 9 f I T G e . . . . . . % 9 e e e e e r r e e e 9 %     . . . . . . . . . . . . . . - 3 3 - . . . . . . e F R R R R R R R ",
"R K s s K R R F e . . . . . . . . . . . . . . . . . . . . X o o O . . . . . . . . . . . . . . . . . . . . % 9 d K R R R R R R R ",
"R U K K U R R F e . . . . . . . . . . . . . . . . . . . . + 1 1 o . . . . . . . . . . . . . . . . . . . . 9 g K U R R R R R R R ",
"R R R R R R R K d 9 % . . . . . . . . . . . . . . . . . . + : > < o X   . . . . . . . . . . . . . . . % 9 d K R R R R R R R R R ",
"R R R R R R R U K g 9 . . . . . . . . . . . . . . . . . . + : , > 1 o . . . . . . . . . . . . . . . . 9 g K U R R R R R R R R R ",
"R R R R R R R R R G e . . . . . . . . . . . . . . . . . . + 1 > , > < o O . . . .   . . . . . . . % 9 d K R R R R R R R R R R R ",
"R R R R R R R R T G e . . . . . . . . . . . . . . . . . . O O < > , > 1 o . .         . . . . . . 9 g K U R R R R R R R R R R R ",
"R R R R R R R R R K d 9 % . . . . . . . . . . . . . . . . . . O 1 : : 1 o     - u u -         % 9 d K R R R R R R R R R R R R R ",
"R R R R R R R R R U K g 9 . . . . . . . . . . . . . . . . . . O + + + + O   . j W W j .   .   9 g K U R R R R R R R R R R R R R ",
"R R T P T R R R R R R K d 9 % . . . . . . . . . . . . . . . . . . . . . . . . k / / k . . . . e G R T P T R R R R R R R R R R R ",
"R R P C L T P T R R R U K g 9 . . . . . . . . . . . . . . . . . . . . . . . . ; k k ; . . . . e G R P C L T P T R R R R R R R R ",
"R R R J V J V P R R R R R G e . . . . . . . . . . . . . . . . . . . . . . . . . . . . . . . . e F R R J V J V P R R R R R R R R ",
"R R R P V J V P R R R R R G e . . . . . . . . . . . . . . . . . . . . . . . . . . . . . . . . e F R R P V J V P R R R R R R R R ",
"R R R T P T P T R R R R R F e . . . . . . . . . . . . . . . . . . . . . . . . . . . . . . % 9 d K R R T P T P T R R R R R R R R ",
"R R R R R R R R R R R R R F e . . . . . . . . . . . . . . . . . . . . . . . . . . . . . . 9 g K U R R R R R R R R R R R R R R R ",
"R R R R R R R R R R R R R F e . . . . . . = = = % . . . . % = = % . . % = = = . . . . . . e G R R R R R R R R R R R R R R R R R ",
"R R R R R R R R R R R T R F e . . . . . . = 4 4 = . . . . = 4 4 = . . = 4 4 = . . . . . . e G R R R R R R R R R R R R R R R R R ",
"R R R R R R R R R R T T T F e . . . . . . = 4 4 = . . . . = 2 4 = . . = 4 4 = . . . . . . e F R R R R R R R R R R R R R R T P T ",
"R R R R R R R R R R T P T D 8 . . . . . . O & & O . . . . O & & O . . O & & O . . . . . . e F R R R R R R R R R R R T P T L C P ",
"R R R R R R R R R R P V J N p 9 % . . .   % 9 9 % . . .   # 9 9 % . . .   % 9 9 % . . % 9 d K R R R R R R R R R R R P V J V L T ",
"R R R R R R R R R R P V J B H g 9 . . .   9 g Z 9 . . .   $ f Z 9 . .     9 Z Z 9 . . 9 g K U R R R R R R R R R R R P V J V P R ",
"R R R R R R R R R R T P T P T K d e e e e d I I d e e e e d K I d e e e e d I I d e e d K R R R R R R R R R R R R R T P T P T R ",
"R R R R R R R R R R R R R R R U K F F F F K U U K F F F F K U U K F F F F K U U K F F K U R R R R R R R R R R R R R R R R R R R ",
"R R R R R R R R R R R R R R R R R R R R R R R R R R R R R R R R R R R R R R R R R R R R R R R R R R R R R R R R R R R R R R R R ",
"R R R R R R R R R R R R R R R R R R T R R R R R R T T R R R R R R R R R R R R R R R R R R R R R R R R R R R R R R R R R R R R R ",
"R R R R R R R R R R R R R R R R R R R R R R R R T T T R R R R R R R R R R R R R R R R R R R R R R R R R R R R R R R R R R R R R "
};
