/* XPM */
static char *ca898bff1f3f431688f71738524ae21b[] = {
/* columns rows colors chars-per-pixel */
"64 64 102 2 ",
"   c #2D2A27",
".  c #2E2D2D",
"X  c #352926",
"o  c #382926",
"O  c #322D2C",
"+  c #3A2929",
"@  c #2F302A",
"#  c #303025",
"$  c #363E24",
"%  c #32322C",
"&  c #38332E",
"*  c #362E30",
"=  c #343331",
"-  c #393531",
";  c #3A3934",
":  c #571F1F",
">  c #5A1D1D",
",  c #611B1B",
"<  c #452523",
"1  c #4C2221",
"2  c #413D37",
"3  c #4F3538",
"4  c #423D39",
"5  c #4A3F3B",
"6  c #503639",
"7  c #374222",
"8  c #394324",
"9  c #3C442D",
"0  c #3E492B",
"q  c #43581F",
"w  c #4F7917",
"e  c #527A19",
"r  c #414D2E",
"t  c #4C423D",
"y  c #4C4B39",
"u  c #534E3F",
"i  c #52503F",
"p  c #4E632E",
"a  c #4E6631",
"s  c #506633",
"d  c #526934",
"f  c #5D7C37",
"g  c #5E7D38",
"h  c #544742",
"j  c #554A44",
"k  c #535042",
"l  c #575941",
"z  c #5B5A42",
"x  c #745D59",
"c  c #75615B",
"v  c #97474E",
"b  c #866965",
"n  c #8B6D69",
"m  c #8B756C",
"M  c #8E7B6E",
"N  c #568217",
"B  c #5C8F16",
"V  c #5E9415",
"C  c #61981A",
"Z  c #5F8038",
"A  c #638E32",
"S  c #66833E",
"D  c #659034",
"F  c #699733",
"G  c #6C973C",
"H  c #6E993D",
"J  c #709E3E",
"K  c #76AF36",
"L  c #73A13F",
"P  c #77B037",
"I  c #7CB43D",
"U  c #75A540",
"Y  c #7DB443",
"T  c #8C8850",
"R  c #81BA44",
"E  c #9D9966",
"W  c #A2966F",
"Q  c #A6827D",
"!  c #A3867F",
"~  c #A4877F",
"^  c #A9857F",
"/  c #A29771",
"(  c #B5AF64",
")  c #C0BA73",
"_  c #A38780",
"`  c #A98580",
"'  c #AC8781",
"]  c #A78980",
"[  c #A98B82",
"{  c #AE8981",
"}  c #AB8C83",
"|  c #B18A85",
" . c #B68F89",
".. c #B88F89",
"X. c #AB9085",
"o. c #AD9187",
"O. c #BA918A",
"+. c #B9998F",
"@. c #C79F98",
"#. c #CAA29A",
"$. c #CEA59C",
"%. c #CEA89E",
/* pixels */
"R R R R R R R R R R R R R R R R R R I V K R I R R R R R R R R R R R I V K R I R R R R R R R R R R R I V K R I R R R R R R R R R ",
"R R R R R R R R R R R R R R R R R R R P V K V I R R R R R R R R R R R P V K V I R R R R R R R R R R R P V K V I R R R R R R R R ",
"R R R R R R R R R R R R R R R R R R R I V K V I R R R R R R R R R R R I V K V I R R R R R R R R R R R I V K V I R R R R R R R R ",
"R R R R R R R R R R R R R R R R R R R R I R I R R R R R R R R R R R R R I R I R R R R R R R R R R R R R I R I R R R R R R R R R ",
"R R R R R R R R R R R R R R R R R R R R R R R R R R R R R R R R R R R R R R R R R R R R R R R R R R R R R R R R R R R R R R R R ",
"R R R R R R R R R R R R R R R R R R R R R R R R R R R R R R R R R R R R R R R R R R R R R R R R R R R R R R R R R R R R R R R R ",
"R R R R R R R R R R R R R R R R R R R R R R R R R R R R R R R R R R R R R R R R R R R R R R R R R R R R R R R R R R R R R R R R ",
"R R R R R R R R R R R R R R R R R R R R R R R R R R R R R R I R R R R R R R R R R R R R R R I R R R R R R R R R R R R R R R I R ",
"R R R R R R R R R R R R R R R R R R R R R R R R R R R I R P C I R R R R R R R R R R R I R P C I R R R R R R R R R R R I R P C I ",
"R R R R R R R R R R R R R R R R R R R R R R R R R R I V K V K R R R R R R R R R R R I V K V K R R R R R R R R R R R I V K V P R ",
"R R R R R R R R R R R R R R R R R R R R R R R R R R I V K V I R R R R R R R R R R R I V K V I R R R R R R R R R R R I V K V I R ",
"R R R R R R R R R R R R R R R R R R R R R R R R R R R I R I R R R R R R R R R R R R R I R I R R R R R R R R R R R R R I R I R R ",
"R R R R R R R R R R R R R R R R R R R R R R R R R R R R R R R R R R R R R R R R R R R R R R R R R R R R R R R R R R R R R R R R ",
"R R R R R R R R R R R R R R R R R R R R R R R R R R R R R R R R R R R R R R R R R R R R R R R R R R R R R R R R R R R R R R R R ",
"R R R R R R R R R R R R R R R R R R R R R R R R R R R R R R R R R R R R R R R R R R R R R R R R R R R R R R R R R R R R R R R R ",
"R R R R R R R R R R R R R R R R R R R I R R R R R R R R R R R R R R R R R R R R R R R R R R R R R R R R R R R R R R R R R R R R ",
"R R R R R R R R R R R R R R R R R R I C P R I R R R R R R R R R R R R R R R R R R R R R R R R R R R R R R R R R R R R R R R R R ",
"R R R R R R R R R R R R R R R R R R R K V K V I R R R R R R R R R R R R R R R R R R R R R R R R R R R R R R R R R R R R R R R R ",
"R R R R R R R R R R R R R R R R R R R I V K V I R R R R R R R R R R R R R R R R R R R R R R R R R R R R R R R R R R R R R R R R ",
"R R R Y L L Y R R R R R R R R R R R R R I R I R R R R R R R R Y J G G G G J Y R R R R R R Y J G G G G J Y R R R R R R R R R R R ",
"R R R L s s L R R R R R R R R R R R R R R R R R R R R R R R R L a 0 0 0 0 a L R R R R R R L a 0 0 0 0 a L R R R R R R R R R R R ",
"R Y L f 9 9 f L Y R R R R R R R R R R R R R R R R R R R R Y L S l h j j h l S L Y R R Y L S z j j j j z S L Y R R R R R R R R R ",
"R L d 9 % % 9 d L R R R R R R R R R R R R R R R R R R R R J a l m _ ` ` ~ m l a J R R J a z M [ ^ ^ [ M z a J R R R R R R R R R ",
"R G r . . . . r H R R R R R R R R R R R R R R R R R R R R G 0 h ! @. . .#.] j 0 G R R G 0 j } $. . .%.X.j 0 G R R R R R R R R R ",
"R G r . . . . r H R R R R R R R R R R R R R R R R R R I R A 7 h Q | x x O.{ j 0 H R R H 0 j ' ..x c +.o.j 0 G R R R R R R R R R ",
"R G r . . . . 9 f L Y R R R R R R R R R R R R R R R I V K w 0 5 b b 5 5 n m t 9 f J J f 9 t n n 5 t m m t 0 G R R R R R R R R R ",
"R G r . . . . % 9 d L R R R R R R R R R R R R R R R I V K e r & 5 5 = = t t - % 9 r r 9 % - t t = = t t & r G R R R R R R R R R ",
"R L d 9 % . . . . 9 f L Y R R R R R R R R R R R R R R I R G r     . . . . . . . . . .   . . . . . . .     r G R R R R R R R R R ",
"R Y L f 9 . . . . % 9 d L R R R R R R R R R R R R R R R R H r     . . . . . . . . . . . . . . . . . .     r G R R R R R R R R R ",
"R R R L d 9 % . . . . r H R R R R R R R R R R R R R R Y L f 9 . . . . . . . . . . . . . . . . . . . .     r H R R R R R R R R R ",
"R R R Y L f 9 . . . . r H R R R R R R R R R R R R R R L d 9 % . . . . . . . . . . . . . . . . . . . . .   r H R R R R R R R R R ",
"R R R I R H r . . . . 9 f L Y R R R R I R R R R R R R G r . . . . . . . . . . ; k k ; . . . . . . ; k u - 9 f L Y R R R R R R R ",
"R R I C P H r . . . . % 9 d L R R R I C P R I R R R R G r . . . . . . . . . . k E E k . . . . . . k E E i @ 9 d L R R R R R R R ",
"R R R K V F q 9 % . . . . r H R R R R K V K V I R R R G r . . . . . . . . . . z ) ( z . . . . . . z ( ) z . . r G R R R R R R R ",
"R R R I V K N f 9 . . . . r H R R R R I V K V I R R R G r . . . . . . . . . . z ( ( z . . . . . . z ( ( z .   r G R R R R R R R ",
"R R R R I R I H r . . . . 9 f L Y R R R I R I R R R R H r   . . . . . . . . . y T T y . . - 3 3 * y T T y .   r G R R R R R R R ",
"R R R R R R R H r . . . . % 9 d L R R R R R R R R R R H r   . . . . . . . . . - y y - . . 3 v v 3 = y y - .   r G R R R R R R R ",
"R R R R R R R G r . . . . . . 9 f H H G G G G G G H H g 9       . . . . . . . . . . . . . 6 v v 6 . . . . . . r G R R R R R R R ",
"R R R R R R R G r . . . . . . % 9 r r r r r r r r r r 9 %     . . . . . . . . . . . . . . - 3 3 - . . . . . . r G R R R R R R R ",
"R R R R R R R G r . . . . . . . . . . . . . . . . . . . . X o o O . . . . . . . . . . . . . . . . . . . . % 9 d L R R R R R R R ",
"R R R R R R R G r . . . . . . . . . . . . . . . . . . . . + 1 1 o . . . . . . . . . . . . . . . . . . . . 9 f L Y R R R R R R R ",
"R R R R R R R L d 9 % . . . . . . . . . . . . . . . . . . + : > < o X   . . . . . . . . . . . . . . . % 9 d L R R R R R R R R R ",
"R R R R R R R Y L f 9 . . . . . . . . . . . . . . . . . . + : , > 1 o . . . . . . . . . . . . . . . . 9 f L Y R R R R R R R R R ",
"R R R R R R R R R H r . . . . . . . . . . . . . . . . . . + 1 > , > < o O . . . .   . . . . . . . % 9 d L R R R R R R R R R R R ",
"R R R R R R R R R H r . . . . . . . . . . . . . . . . . . O O < > , > 1 o . .         . . . . . . 9 f L Y R R R R R R R R R R R ",
"R R R R R R R R R L d 9 % . . . . . . . . . . . . . . . . . . O 1 : : 1 o     - u u -         % 9 d L R R R R R R R R R R R R R ",
"R R R R R R R R R Y L f 9 . . . . . . . . . . . . . . . . . . O + + + + O   . j W W j .   .   9 f L Y R R R R R R R R R R R R R ",
"R R R I R R R R R R R L d 9 % . . . . . . . . . . . . . . . . . . . . . . . . k / / k . . . . r H R R I R R R R R R R R R R R R ",
"R R I C P R I R R R R Y L f 9 . . . . . . . . . . . . . . . . . . . . . . . . ; k k ; . . . . r H R I C P R I R R R R R R R R R ",
"R R R K V K V I R R R R R H r . . . . . . . . . . . . . . . . . . . . . . . . . . . . . . . . r G R R K V K V I R R R R R R R R ",
"R R R I V K V I R R R R R H r . . . . . . . . . . . . . . . . . . . . . . . . . . . . . . . . r G R R I V K V I R R R R R R R R ",
"R R R R I R I R R R R R R G r . . . . . . . . . . . . . . . . . . . . . . . . . . . . . . % 9 d L R R R I R I R R R R R R R R R ",
"R R R R R R R R R R R R R G r . . . . . . . . . . . . . . . . . . . . . . . . . . . . . . 9 f L Y R R R R R R R R R R R R R R R ",
"R R R R R R R R R R R R R G r . . . . . . = = = % . . . . % = = % . . % = = = . . . . . . r H R R R R R R R R R R R R R R R R R ",
"R R R R R R R R R R R R R G r . . . . . . = 4 4 = . . . . = 4 4 = . . = 4 4 = . . . . . . r H R R R R R R R R R R R R R R R R R ",
"R R R R R R R R R R R R R G r . . . . . . = 4 4 = . . . . = 2 4 = . . = 4 4 = . . . . . . r G R R R R R R R R R R R R R R R I R ",
"R R R R R R R R R R R I R D 8 . . . . . . O & & O . . . . O & & O . . O & & O . . . . . . r G R R R R R R R R R R R R I R P C I ",
"R R R R R R R R R R I V K N p 9 % . . .   % 9 9 % . . .   # 9 9 % . . .   % 9 9 % . . % 9 d L R R R R R R R R R R R I V K V P R ",
"R R R R R R R R R R I V K B J g 9 . . .   9 g Z 9 . . .   $ f Z 9 . .     9 Z Z 9 . . 9 f L Y R R R R R R R R R R R I V K V I R ",
"R R R R R R R R R R R I R I R L d r r r r d U U d r r r r d L U d r r r r d U U d r r d L R R R R R R R R R R R R R R I R I R R ",
"R R R R R R R R R R R R R R R Y L G G G G L Y Y L G G G G L Y Y L G G G G L Y Y L G G L Y R R R R R R R R R R R R R R R R R R R ",
"R R R R R R R R R R R R R R R R R R R R R R R R R R R R R R R R R R R R R R R R R R R R R R R R R R R R R R R R R R R R R R R R ",
"R R R R R R R R R R R R R R R R R R R R R R R R R R R R R R R R R R R R R R R R R R R R R R R R R R R R R R R R R R R R R R R R ",
"R R R R R R R R R R R R R R R R R R R R R R R R R R R R R R R R R R R R R R R R R R R R R R R R R R R R R R R R R R R R R R R R "
};
