/* XPM */
static char *_44af3a2956548c08736fad07e293de8[] = {
/* columns rows colors chars-per-pixel */
"64 64 113 2 ",
"   c #2D2A27",
".  c #2E2D2D",
"X  c #3A2624",
"o  c #352926",
"O  c #3B2F26",
"+  c #392728",
"@  c #322D2C",
"#  c #3B2929",
"$  c #2F302A",
"%  c #303025",
"&  c #363E24",
"*  c #32322C",
"=  c #38332E",
"-  c #362E30",
";  c #343331",
":  c #383431",
">  c #3A3934",
",  c #551E1E",
"<  c #5A1D1D",
"1  c #611B1B",
"2  c #452523",
"3  c #4B2322",
"4  c #512B21",
"5  c #5B3B26",
"6  c #413D37",
"7  c #4F3538",
"8  c #423D39",
"9  c #4A3F3B",
"0  c #503639",
"q  c #622A27",
"w  c #3A4424",
"e  c #3C442D",
"r  c #3E492B",
"t  c #537D19",
"y  c #47432A",
"u  c #48442A",
"i  c #424D2E",
"p  c #4C4B2C",
"a  c #43502F",
"s  c #4C423D",
"d  c #4C4B39",
"f  c #514F3F",
"g  c #52503F",
"h  c #614527",
"j  c #614B3F",
"k  c #7C4135",
"l  c #4E632E",
"z  c #4E6631",
"x  c #506633",
"c  c #526934",
"v  c #5D7C37",
"b  c #5E7D38",
"n  c #647C36",
"m  c #544742",
"M  c #554944",
"N  c #525142",
"B  c #575941",
"V  c #5B5A42",
"C  c #745D59",
"Z  c #75615B",
"A  c #97474E",
"S  c #866965",
"D  c #8B6D69",
"F  c #8B756C",
"G  c #8E7B6E",
"H  c #548117",
"J  c #5C8F16",
"K  c #5E9415",
"L  c #61981A",
"P  c #5F8038",
"I  c #66833E",
"U  c #669034",
"Y  c #699237",
"T  c #6C973C",
"R  c #6E993D",
"E  c #78963B",
"W  c #709D3D",
"Q  c #76AF36",
"!  c #73A13F",
"~  c #79AE3D",
"^  c #77B037",
"/  c #7CB43D",
"(  c #75A540",
")  c #7DB443",
"_  c #8C8850",
"`  c #81BA44",
"'  c #9D9966",
"]  c #AF926D",
"[  c #A6827D",
"{  c #A3867F",
"}  c #A4877F",
"|  c #A9857F",
" . c #A19772",
".. c #B5AF64",
"X. c #C0BA73",
"o. c #A38780",
"O. c #A98580",
"+. c #AC8781",
"@. c #A78980",
"#. c #A98B82",
"$. c #AE8981",
"%. c #AB8C83",
"&. c #B18A85",
"*. c #B68E88",
"=. c #B88F89",
"-. c #AB9085",
";. c #AD9187",
":. c #BA918A",
">. c #B9998F",
",. c #C79F98",
"<. c #CAA29A",
"1. c #CEA59C",
"2. c #CEA89E",
/* pixels */
"` ` ` ` ` ` ` ` ` ` ` ` ` ` ` ` ` ` / K Q ` / ` ` ` ` ` ` ` ` ` ` ` / K Q ` / ` ` ` ` ` ` ` ` ` ` ` / K Q ` / ` ` ` ` ` ` ` ` ` ",
"` ` ` ` ` ` ` ` ` ` ` ` ` ` ` ` ` ` ` ^ K Q K / ` ` ` ` ` ` ` ` ` ` ` ^ K Q K / ` ` ` ` ` ` ` ` ` ` ` ^ K Q K / ` ` ` ` ` ` ` ` ",
"` ` ` ` ` ` ` ` ` ` ` ` ` ` ` ` ` ` ` / K Q K / ` ` ` ` ` ` ` ` ` ` ` / K Q K / ` ` ` ` ` ` ` ` ` ` ` / K Q K / ` ` ` ` ` ` ` ` ",
"` ` ` ` ` ` ` ` ` ` ` ` ` ` ` ` ` ` ` ` / ` / ` ` ` ` ` ` ` ` ` ` ` ` ` / ` / ` ` ` ` ` ` ` ` ` ` ` ` ` / ` / ` ` ` ` ` ` ` ` ` ",
"` ` ` ` ` ` ` ` ` ` ` ` ` ` ` ` ` ` ` ` ` ` ` ` ` ` ` ` ` ` ` ` ` ` ` ` ` ` ` ` ` ` ` ` ` ` ` ` ` ` ` ` ` ` ` ` ` ` ` ` ` ` ` ` ",
"` ` ` ` ` ` ` ` ` ` ` ` ` ` ` ` ` ` ` ` ` ` ` ` ` ` ` ` ` ` ` ` ` ` ` ` ` ` ` ` ` ` ` ` ` ` ` ` ` ` ` ` ` ` ` ` ` ` ` ` ` ` ` ` ",
"` ` ` ` ` ` ` ` ` ` ` ` ` ` ` ` ` ` ` ` ` ` ` ` ` ` ` ` ` ` ` ` ` ` ` ` ` ` ` ` ` ` ` ` ` ` ` ` ` ` ` ` ` ` ` ` ` ` ` ` ` ` ` ` ",
"` ` ` ` ` ` ` ` ` ` ` ` ` ` ` ` ` ` ` ` ` ` ` ` ` ` ` ` ` ` / ` ` ` ` ` ` ` ` ` ` ` ` ` ` ` / ` ` ` ` ` ` ` ` ` ` ` ` ` ` ` / ` ",
"` ` ` ` ` ` ` ` ` ` ` ` ` ` ` ` ` ` ` ` ` ` ` ` ` ` ` / ` ^ L / ` ` ` ` ` ` ` ` ` ` ` / ` ^ L / ` ` ` ` ` ` ` ` ` ` ` / ` ^ L / ",
"` ` ` ` ` ` ` ` ` ` ` ` ` ` ` ` ` ` ` ` ` ` ` ` ` ` / K Q K Q ` ` ` ` ` ` ` ` ` ` ` / K Q K Q ` ` ` ` ` ` ` ` ` ` ` / K Q K ^ ` ",
"` ` ` ` ` ` ` ` ` ` ` ` ` ` ` ` ` ` ` ` ` ` ` ` ` ` / K Q K / ` ` ` ` ` ` ` ` ` ` ` / K Q K / ` ` ` ` ` ` ` ` ` ` ` / K Q K / ` ",
"` ` ` ` ` ` ` ` ` ` ` ` ` ` ` ` ` ` ` ` ` ` ` ` ` ` ` / ` / ` ` ` ` ` ` ` ` ` ` ` ` ` / ` / ` ` ` ` ` ` ` ` ` ` ` ` ` / ` / ` ` ",
"` ` ` ` ` ` ` ` ` ` ` ` ` ` ` ` ` ` ` ` ` ` ` ` ` ` ` ` ` ` ` ` ` ` ` ` ` ` ` ` ` ` ` ` ` ` ` ` ` ` ` ` ` ` ` ` ` ` ` ` ` ` ` ` ",
"` ` ` ` ` ` ` ` ` ` ` ` ` ` ` ` ` ` ` ` ` ` ` ` ` ` ` ` ` ` ` ` ` ` ` ` ` ` ` ` ` ` ` ` ` ` ` ` ` ` ` ` ` ` ` ` ` ` ` ` ` ` ` ` ",
"` ` ` ` ` ` ` ` ` ` ` ` ` ` ` ` ` ` ` ` ` ` ` ` ` ` ` ` ` ` ` ` ` ` ` ` ` ` ` ` ` ` ` ` ` ` ` ` ` ` ` ` ` ` ` ` ` ` ` ` ` ` ` ` ",
"` ` ` ` ` ` ` ` ` ` ` ` ` ` ` ` ` ` ` / ` ` ` ` ` ` ` ` ` ` ` ` ` ` ` ` ` ` ` ` ` ` ` ` ` ` ` ` ` ` ` ` ` ` ` ` ` ` ` ` ` ` ` ` ",
"` ` ` ` ` ` ` ` ` ` ` ` ` ` ` ` ` ` / L ^ ` / ` ` ` ` ` ` ` ` ` ` ` ` ` ` ` ` ` ` ` ` ` ` ` ` ` ` ` ` ` ` ` ` ` ` ` ` ` ` ` ` ` ",
"` ` ` ` ` ` ` ` ` ` ` ` ` ` ` ` ` ` ` Q K Q K / ` ` ` ` ` ` ` ) W T T T T W ) ` ` ` ` ` ` ) W T T T T W ) ` ` ` ` ` ` ` ` ` ` ` ",
"` ` ` ` ` ` ` ` ` ` ` ` ` ` ` ` ` ` ` / K Q K / ` ` ` ` ` ` ` ! z r r r r z ! ` ` ` ` ` ` ! z r r r r z ! ` ` ` ` ` ` ` ` ` ` ` ",
"` ` ` ` ` ` ` ` ` ) ! ! ) ` ` ` ` ` ` ` / ` / ` ` ` ` ` ` ) ! I B m M M m B I ! ) ` ` ) ! I V M M M M V I ! ) ` ` ` ` ` ` ` ` ` ",
"` ` ` ` ` ` ` ` ` ! x x ! ` ` ` ` ` ` ` ` ` ` ` ` ` ` ` ` W z B F o.O.O.} F B z W ` ` W z V G #.| | #.G V z W ` ` ` ` ` ` ` ` ` ",
"` ` ` ` ` ` ` ) ! v e e v ! ) ` ` ` ` ` ` ` ` ` ` ` ` ` ` T r m { ,.*.*.<.@.M r T ` ` T r M %.1.*.*.2.-.M r T ` ` ` ` ` ` ` ` ` ",
"` ` ` ` ` ` ` ! c e * * e c ! ` ` ` ` ` ` ` ` ` ` ` ` ` ` T r m [ &.C C :.$.M r R ` ` R r M +.=.C Z >.;.M r T ` ` ` ` ` ` ` ` ` ",
"` ` ` ` ` ` ` T i . . . . i T ` ` ` ` ` ` ` ` ` ` ` ` ` ` T r 9 S S 9 9 D F s e v W W v e s D D 9 s F F s r T ` ` ` ` ` ` ` ` ` ",
"` ` ` ` ` ` ` T i . . . . i T ` ` ` ` ` ` ` ` ` ` ` ` / ` U w = 9 9 ; ; s s : * e i i e * : s s ; ; s s = i T ` ` ` ` ` ` ` ` ` ",
"` ` ` ` ` ` ` T i . . . . i T ` ` ` ` ` ` ` ` ` ` ` / K Q t i       . .     . . . . . . . .     . .       i T ` ` ` ` ` ` ` ` ` ",
"` ` ` ` ` ` ` T i . . . . i T ` ` ` ` ` ` ` ` ` ` ` / K Q t i     . . . . . . . . . . . . . . . . . .     i T ` ` ` ` ` ` ` ` ` ",
"` ` ` ` ` ` ` T i . . . . i T ` ` ` ` ` ` ` ` ` ` ` ` ~ ! v e . . . . . . . . . . . . . . . . . . . .     i R ` ` ` ` ` ` ` ` ` ",
"` ` ` ` ` ` ` T i . . . . i T ` ` ` ` ` ` ` ` ` ` ` ` ! c e * . . . . . . . . . . . . . . . . . . . .     i R ` ` ` ` ` ` ` ` ` ",
"` ` ` ` ` ` ` T i . . . . i T ` ` ` ` ` ` ` ` ` ` ` ` T i . . . . . . . . . . > N N > . . . . . . > N f : e v ! ) ` ` ` ` ` ` ` ",
"` ` ` ` ` ` ` T i . . . . i T ` ` ` ` ` ` ` ` ` ` ` ` T i . . . . . . . . . . N ' ' N . . . . . . N ' ' g $ e c ! ` ` ` ` ` ` ` ",
"` ` ` / ` ` ` T i . . . . i T ` ` ` ` / ` ` ` ` ` ` ` T i . . . . . . . . . . V X.X.V . . . . . . V X.X.V     i T ` ` ` ` ` ` ` ",
"` ` / L ^ ` / T i . . . . i T ` ` ` / L ^ ` / ` ` ` ` T i . . . . . . . . . . V ....V . . . . . . V ....V     i T ` ` ` ` ` ` ` ",
"` ` ` Q K Q K Y i . . . . i R ` ` ` ` Q K Q K / ` ` ` T i . . . . . . . . . . d _ _ d . . : 7 7 - d _ _ d     i T ` ` ` ` ` ` ` ",
"` ` ` / K Q K Y i . . . . i R ` ` ` ` / K Q K / ` ` ` T i   . . . .   . . . . : d d : . . 7 A A 7 ; d d : .   i T ` ` ` ` ` ` ` ",
"` ` ` ` / ` / T i . . . . e v ! ) ` ` ` / ` / ` ` ` ` ! c e *   . . . . . . . . . . . . . 7 A A 0 . . . . . . i T ` ` ` ` ` ` ` ",
"` ` ` ` ` ` ` T i . . . . * e c ! ` ` ` ` ` ` ` ` ` ` ) ( P e . . . . . . . . . . . . . . : 7 7 : . . . . . . i T ` ` ` ` ` ` ` ",
"` ` ` ` ` ` ` T i . . . . . . e v R R T T T T T T T T R W n y o @ . . . . . . . . . . . . . . . . . . . . * e c ! ` ` ` ` ` ` ` ",
"` ` ` ` ` ` ` T i . . . . . . * e i i i i i a a i i i i a u 4 3 o . . .   . . . . . . . . . . . . . . . . e v ! ) ` ` ` ` ` ` ` ",
"` ` ` ` ` ` ` T i . . . . . . . . . . . . . . . . . . . . X , < 2 o o     . . . . . . . . . . . . . . * e c ! ` ` ` ` ` ` ` ` ` ",
"` ` ` ` ` ` ` T i . . . . . . . . . . . . . . . . . . . . # , 1 < 3 o . . . . . . . . . . . . . . . . e v ! ) ` ` ` ` ` ` ` ` ` ",
"` ` ` ` ` ` ` ! c e * . . . . . . . . . . . . . . . . . . @ 3 < 1 < 2 o @ . . . . . . . . . . . . * e c ! ` ` ` ` ` ` ` ` ` ` ` ",
"` ` ` ` ` ` ` ) ! v e . . . . . . . . . . . . . . . . . . @ @ 2 < 1 < 3 o .   . . . . . . . . . . e v ! ) ` ` ` ` ` ` ` ` ` ` ` ",
"` ` ` ` ` ` ` ` ` R i . . . . . . . . . . . . . . . . . . . . @ 3 < 1 < 2 X X X X X X X X X X O e c ! ` ` ` ` ` ` ` ` ` ` ` ` ` ",
"` ` ` ` ` ` ` ` ` R i . . . . . . . . . . . . . . . . . . . . @ @ 2 < 1 < , , , , , , , , , , 5 n ! ) ` ` ` ` ` ` ` ` ` ` ` ` ` ",
"` ` ` ` ` ` ` ` ` ! c e * . . . . . . . . . . . . . . . . . . . . @ 3 , , , , q k k q , , , , h E ` ` ` ` ` ` ` ` ` ` ` ` ` ` ` ",
"` ` ` ` ` ` ` ` ` ) ! v e . . . . . . . . . . . . . . . . . . . . @ @ # # + X j ] ] j X + # X p W ` ` ` ` ` ` ` ` ` ` ` ` ` ` ` ",
"` ` ` / ` ` ` ` ` ` ` ! c e * . . . . . . . . . . . . . . . . . . . . . . . . N  . .N . . . . i T ` ` / ` ` ` ` ` ` ` ` ` ` ` ` ",
"` ` / L ^ ` / ` ` ` ` ) ! v e . . . . . . . . . . . . . . . . . . . . . . . . > N N > . . . . i T ` / L ^ ` / ` ` ` ` ` ` ` ` ` ",
"` ` ` Q K Q K / ` ` ` ` ` R i . . . . . . . . . . . . . . . . . . . . . . . . . . . . . . . . i T ` ` Q K Q K / ` ` ` ` ` ` ` ` ",
"` ` ` / K Q K / ` ` ` ` ` R i . . . . . . . . . . . . . . . . . . . . . . . . . . . . . . . . i T ` ` / K Q K / ` ` ` ` ` ` ` ` ",
"` ` ` ` / ` / ` ` ` ` ` ` T i . . . . . . . . . . . . . . . . . . . . . . . . . . . . . . * e c ! ` ` ` / ` / ` ` ` ` ` ` ` ` ` ",
"` ` ` ` ` ` ` ` ` ` ` ` ` T i . . . . . . . . . . . . . . . . . . . . . . . . . . . . . . e v ! ) ` ` ` ` ` ` ` ` ` ` ` ` ` ` ` ",
"` ` ` ` ` ` ` ` ` ` ` ` ` T i . . . . . . ; ; ; * . . . . * ; ; * . . * ; ; ; . . . . . . i R ` ` ` ` ` ` ` ` ` ` ` ` ` ` ` ` ` ",
"` ` ` ` ` ` ` ` ` ` ` ` ` T i . . . . . . ; 8 8 ; . . . . ; 8 8 ; . . ; 8 8 ; . . . . . . i R ` ` ` ` ` ` ` ` ` ` ` ` ` ` ` ` ` ",
"` ` ` ` ` ` ` ` ` ` ` ` ` T i . . . . . . ; 8 8 ; . . . . ; 6 8 ; . . ; 8 8 ; . . . . . . i T ` ` ` ` ` ` ` ` ` ` ` ` ` ` ` / ` ",
"` ` ` ` ` ` ` ` ` ` ` / ` U w . . . . . . @ = = @ . . . . @ = = @ . . @ = = @ . . . . . . i T ` ` ` ` ` ` ` ` ` ` ` ` / ` ^ L / ",
"` ` ` ` ` ` ` ` ` ` / K Q H l e * . . .   * e e * . . .   % e e * . . .   * e e * . . * e c ! ` ` ` ` ` ` ` ` ` ` ` / K Q K ^ ` ",
"` ` ` ` ` ` ` ` ` ` / K Q J W b e . . .   e b P e . . .   & v P e . .     e P P e . . e v ! ) ` ` ` ` ` ` ` ` ` ` ` / K Q K / ` ",
"` ` ` ` ` ` ` ` ` ` ` / ` / ` ! c i i i i c ( ( c i i i i c ! ( c i i i i c ( ( c i i c ! ` ` ` ` ` ` ` ` ` ` ` ` ` ` / ` / ` ` ",
"` ` ` ` ` ` ` ` ` ` ` ` ` ` ` ) ! T T T T ! ) ) ! T T T T ! ) ) ! T T T T ! ) ) ! T T ! ) ` ` ` ` ` ` ` ` ` ` ` ` ` ` ` ` ` ` ` ",
"` ` ` ` ` ` ` ` ` ` ` ` ` ` ` ` ` ` ` ` ` ` ` ` ` ` ` ` ` ` ` ` ` ` ` ` ` ` ` ` ` ` ` ` ` ` ` ` ` ` ` ` ` ` ` ` ` ` ` ` ` ` ` ` ",
"` ` ` ` ` ` ` ` ` ` ` ` ` ` ` ` ` ` ` ` ` ` ` ` ` ` ` ` ` ` ` ` ` ` ` ` ` ` ` ` ` ` ` ` ` ` ` ` ` ` ` ` ` ` ` ` ` ` ` ` ` ` ` ` ",
"` ` ` ` ` ` ` ` ` ` ` ` ` ` ` ` ` ` ` ` ` ` ` ` ` ` ` ` ` ` ` ` ` ` ` ` ` ` ` ` ` ` ` ` ` ` ` ` ` ` ` ` ` ` ` ` ` ` ` ` ` ` ` ` "
};
